<svg id="Layer_1" data-name="Layer 1" xmlns="http://www.w3.org/2000/svg" xmlns:xlink="http://www.w3.org/1999/xlink" viewBox="0 0 23.56 24.22"><defs><style>.cls-1{fill:url(#linear-gradient);}.cls-2{fill:#fff;}.cls-2,.cls-3,.cls-4{fill-rule:evenodd;}.cls-3{fill:url(#linear-gradient-2);}.cls-4{fill:url(#linear-gradient-3);}</style><linearGradient id="linear-gradient" x1="-249.23" y1="392.97" x2="-248.28" y2="392.97" gradientTransform="matrix(24.72, 0, 0, -24.67, 6161.11, 9708)" gradientUnits="userSpaceOnUse"><stop offset="0" stop-color="#70cbd0"/><stop offset="1" stop-color="#459999"/></linearGradient><linearGradient id="linear-gradient-2" x1="-179.18" y1="371.14" x2="-179.18" y2="370.65" gradientTransform="matrix(3.57, 0, 0, -10.16, 681.38, 3779.05)" gradientUnits="userSpaceOnUse"><stop offset="0" stop-color="#fed402"/><stop offset="1" stop-color="#f49f1e"/></linearGradient><linearGradient id="linear-gradient-3" x1="-232.33" y1="300.97" x2="-231.84" y2="300.97" gradientTransform="matrix(10.18, 0, 0, -3.56, 2402.68, 1084.96)" xlink:href="#linear-gradient-2"/></defs><g id="Symbol"><g id="Bar_Search_Home" data-name="Bar/Search/Home"><g id="logo"><ellipse id="Oval" class="cls-1" cx="11.78" cy="12.11" rx="11.78" ry="12.11"/><path id="Path" class="cls-2" d="M49,17.23l-1.06-1.08A8,8,0,0,0,46.14,6a7.42,7.42,0,0,0-10,.49,8,8,0,0,0-.82,10.25A7.45,7.45,0,0,0,45.11,19l1.1,1.13a1.92,1.92,0,0,0,2.74,0,2.07,2.07,0,0,0,0-2.82Z" transform="translate(-29.92 -0.4)"/><path id="Path-2" data-name="Path" class="cls-3" d="M43.38,9.21a1.69,1.69,0,0,0-3.38,0h0v0l0,6.6a1.69,1.69,0,0,0,3.38,0h0Z" transform="translate(-29.92 -0.4)"/><path id="Path-3" data-name="Path" class="cls-4" d="M38.49,10.78a1.74,1.74,0,0,0,0,3.48h0l6.42,0A1.74,1.74,0,0,0,45,10.76h0Z" transform="translate(-29.92 -0.4)"/></g></g></g></svg>