<svg xmlns="http://www.w3.org/2000/svg" xmlns:xlink="http://www.w3.org/1999/xlink" viewBox="0 0 85.68 24.22"><defs><style>.cls-1,.cls-2{fill:#f49f1e;}.cls-1,.cls-4,.cls-5,.cls-6{fill-rule:evenodd;}.cls-3{fill:url(#linear-gradient);}.cls-4{fill:#fff;}.cls-5{fill:url(#linear-gradient-2);}.cls-6{fill:url(#linear-gradient-3);}</style><linearGradient id="linear-gradient" x1="-310.76" y1="392.52" x2="-309.78" y2="392.52" gradientTransform="matrix(24.72, 0, 0, -24.67, 7682.06, 9696.83)" gradientUnits="userSpaceOnUse"><stop offset="0" stop-color="#70cbd0"/><stop offset="1" stop-color="#459999"/></linearGradient><linearGradient id="linear-gradient-2" x1="-232.71" y1="370.69" x2="-232.71" y2="370.19" gradientTransform="matrix(3.57, 0, 0, -10.16, 842.93, 3774.03)" gradientUnits="userSpaceOnUse"><stop offset="0" stop-color="#fed402"/><stop offset="1" stop-color="#f49f1e"/></linearGradient><linearGradient id="linear-gradient-3" x1="-291.93" y1="300.5" x2="-291.43" y2="300.5" gradientTransform="matrix(10.18, 0, 0, -3.56, 2979.59, 1082.9)" xlink:href="#linear-gradient-2"/></defs><g id="Layer_2" data-name="Layer 2"><g id="Layer_1-2" data-name="Layer 1"><g id="Symbol"><g id="Bar_Search_Home" data-name="Bar/Search/Home"><g id="logo"><path id="Path" class="cls-1" d="M32.82,17.12a3.72,3.72,0,0,1-4-3.9,2.22,2.22,0,0,1,.94-.27,1.78,1.78,0,0,1,.87.27,2,2,0,0,0,2.13,2.11c1.21,0,2-.66,2-1.48a1.35,1.35,0,0,0-.13-.56,1.13,1.13,0,0,0-.36-.36,1.68,1.68,0,0,0-.33-.16,2.5,2.5,0,0,0-.38-.15l-.25-.08-.38-.1-.42-.1a14.39,14.39,0,0,1-1.7-.5,2.6,2.6,0,0,1-1.75-2.59c0-1.94,1.49-3.09,3.66-3.1a3.36,3.36,0,0,1,3.62,3.64,1.32,1.32,0,0,1-.92.27c-.66,0-.84-.27-.84-.27a1.75,1.75,0,0,0-1.89-1.88c-1.13,0-1.84.58-1.84,1.29a1,1,0,0,0,.2.6,1.55,1.55,0,0,0,.58.4,2.05,2.05,0,0,0,.41.16l.48.14a21.35,21.35,0,0,1,2.24.66,2.6,2.6,0,0,1,1.79,2,3.68,3.68,0,0,1,.06.66,3.12,3.12,0,0,1-1.89,2.91,4.74,4.74,0,0,1-1.89.36Z"/><path id="Shape" class="cls-2" d="M39.76,13.6a2.37,2.37,0,0,0,2.4,1.84,2,2,0,0,0,2.06-1,1.26,1.26,0,0,1,.94-.4,1.14,1.14,0,0,1,.91.4,3.85,3.85,0,0,1-3.91,2.77A4.13,4.13,0,0,1,40,16.6a3.91,3.91,0,0,1-1.52-1.55,4.63,4.63,0,0,1,0-4.37A4,4,0,0,1,40,9.12a4.36,4.36,0,0,1,4.31,0,3.91,3.91,0,0,1,1.48,1.59,4.56,4.56,0,0,1,.51,2.17c0,.24,0,.47,0,.71Zm.05-1.67H44.5a2.47,2.47,0,0,0-4.69,0Z"/><path id="Path-2" data-name="Path" class="cls-1" d="M53.85,12.3c0-1.48-.66-2.2-1.8-2.21a2.2,2.2,0,0,0-2,2.34V17a1.14,1.14,0,0,1-.86.28,1.21,1.21,0,0,1-.89-.28V5.79a1.41,1.41,0,0,1,.9-.31,1.06,1.06,0,0,1,.85.31V9.16a3.66,3.66,0,0,1,2.35-.74c2,0,3.23,1.46,3.23,3.6v5a1.21,1.21,0,0,1-.85.29,1.36,1.36,0,0,1-.89-.29Z"/><path id="Shape-2" data-name="Shape" class="cls-2" d="M64.3,16.21a3.8,3.8,0,0,1-2.6.95,4.24,4.24,0,0,1-2.18-.56A4,4,0,0,1,58,15.05a4.52,4.52,0,0,1-.56-2.19,4.22,4.22,0,0,1,4.28-4.3,4,4,0,0,1,2.67,1V8.72a1.36,1.36,0,0,1,.89-.27,1.39,1.39,0,0,1,.9.27V17a2.53,2.53,0,0,1-.94.18A2.39,2.39,0,0,1,64.3,17Zm-5.09-3.35a2.58,2.58,0,1,0,2.59-2.6,2.55,2.55,0,0,0-2.59,2.6Z"/><path id="Path-3" data-name="Path" class="cls-1" d="M69.23,14V10.51H67.92a1.36,1.36,0,0,1-.24-.85,1.09,1.09,0,0,1,.24-.8h1.31V7a1.27,1.27,0,0,1,.88-.25c.66,0,.82.26.82.26V8.86h2.34a2.69,2.69,0,0,1,.18.84,1.75,1.75,0,0,1-.18.81H70.93V14a1.23,1.23,0,0,0,1.38,1.36h1a1.13,1.13,0,0,1,.27.85,1.07,1.07,0,0,1-.27.82H72.15A2.78,2.78,0,0,1,69.23,14Z"/><path id="Shape-3" data-name="Shape" class="cls-2" d="M85.33,16.69l-1.08-1.25a5.53,5.53,0,0,0,1.43-3.79A5.6,5.6,0,0,0,85,8.84a5,5,0,0,0-2-2,6.08,6.08,0,0,0-5.74,0,5.09,5.09,0,0,0-2,2,5.56,5.56,0,0,0-.72,2.82,5.67,5.67,0,0,0,.72,2.82,5.25,5.25,0,0,0,2,2,5.76,5.76,0,0,0,2.87.71,6,6,0,0,0,2.49-.52L83.71,18a1.83,1.83,0,0,0,1.17-.36A1.14,1.14,0,0,0,85.33,16.69Zm-6-3.81,1.63,1.92a2.78,2.78,0,0,1-.76.1,3.24,3.24,0,1,1,2.53-1.23l-1.75-2s-.36-.33-1.14.23S79.31,12.88,79.31,12.88Z"/><ellipse id="Oval" class="cls-3" cx="12.13" cy="12.11" rx="12.13" ry="12.11"/><path id="Path-4" data-name="Path" class="cls-4" d="M19.62,16.84l-1.09-1.09a7.81,7.81,0,1,0-2.9,2.8l1.14,1.13a2,2,0,0,0,2.85-2.84Z"/><path id="Path-5" data-name="Path" class="cls-5" d="M13.86,8.81a1.74,1.74,0,0,0-3.48,0h0v6.62a1.76,1.76,0,0,0,1.72,1.7,1.74,1.74,0,0,0,1.77-1.65h0Z"/><path id="Path-6" data-name="Path" class="cls-6" d="M8.82,10.38a1.74,1.74,0,0,0,0,3.48h0l6.61,0a1.74,1.74,0,0,0,.05-3.48h0Z"/></g></g></g></g></g></svg>