<svg width="300" height="300" xmlns="http://www.w3.org/2000/svg">
    <g fill="none" fill-rule="evenodd">
        <path d="M0 0h300v300H0z"/>
        <g transform="translate(38.762 25)" fill-rule="nonzero">
            <path d="M28.003 124.82c-1.085 23.236-37.15 17.34-25.775 57.716 11.375 40.375 52.95 56.875 123.295 50.85 70.345-6.025 98.03-37.5 96.91-66.5-1.12-29-28.545-32.385-29.735-51.885-1.19-19.5 18.3-36.93 10.17-64.245-8.225-27.62-35.84-57.26-109.17-49.5C34.358 7.5 5.303 43.7 4.043 66.62c-1.96 35.555 24.96 36.815 23.96 58.2z" fill="#81F2D7"/>
            <path d="M125.523 233.386c70.345-6.03 98.03-37.5 96.91-66.5-.375-9.7-3.69-16.53-8-22.055a63.55 63.55 0 0 0-13.185 10.6c-12.155 12.805-20.385 31.62-37.47 36.055-17.77 4.615-36.5-9.2-54.25-4.59-4.86 1.26-9.28 3.845-14.05 5.415-12.03 3.97-25.34 1.2-36.95-3.87-20.5-8.96-35-24.11-46.305-42.625-8.5 6.68-16.14 15-10 36.74 11.375 40.36 52.955 56.855 123.3 50.83z" fill="#6CD3B8"/>
            <path fill="#666461" d="M56.423 120.731h16.85v22.295h-16.85z"/>
            <path fill="#A7A7A7" d="M58.338 120.731h16.85v22.295h-16.85z"/>
            <path fill="#A7A7A7" d="M58.338 138.696h25.82v4.33h-25.82z"/>
            <path fill="#666461" d="M57.878 138.696h6.25v4.33h-6.25z"/>
            <rect fill="#666461" x="16.418" y="54.386" width="103.37" height="68.705" rx="14.52"/>
            <rect fill="#A7A7A7" x="18.683" y="54.386" width="103.37" height="68.705" rx="14.52"/>
            <rect fill="#E5F5F9" x="21.903" y="57.141" width="96.94" height="59.69" rx="12.25"/>
            <rect fill="#E5F5F9" x="63.138" y="118.771" width="9.555" height="2.125" rx="1.063"/>
            <circle fill="#FFD31A" cx="46.503" cy="82.046" r="17.425"/>
            <path d="m55.188 97.15.1-.054a18.27 18.27 0 0 0 2.07-1.42c-.835-5.78-1.945-12.345-2.285-12.97-.5-.96-.44-.61-1.77-1.225-.205-.08-1.765-.5-2.77-.775-.255-.405-.5-.88-.76-1.215h-.8v-.635c0-.085 0-.165-.025-.25a1.5 1.5 0 0 0 .225-.42c.2-.635.23-1.615.32-1.825.34.67 1.395-.375 1.5-1.93.05-.965-.425-1.065-.745-1a3.73 3.73 0 0 0 .405-1.385c.035-.175-.445-1.5-.38-1.69a1.5 1.5 0 0 0-.145-.92 10.67 10.67 0 0 0-2.31-1.215c-.365-.055-1.545-.33-2.135-.155-.59.175-2.135.725-2.35.815-.215.09-.475.095-.545.6a2.66 2.66 0 0 1-.305.915 1 1 0 0 0-.465.82 8.5 8.5 0 0 0 .14 1.65s.24.335.335.475c-.3 0-.645.19-.625 1 .035 1.56 1.05 2.625 1.46 2.105.085.21.225 1.295.355 1.765.106.249.28.464.5.62l-.04.715h-.905c-.258.366-.495.746-.71 1.14-.793.213-1.57.483-2.325.81-1.27.58-1.195.255-1.71 1.2-.35.635-1.5 7.42-2.33 13.275.637.476 1.305.908 2 1.295l.255.135.08.045.155.08.315.155.065.035.32.15.085.04.385.17.135.055.57.225.135.05h.05l.26.09h.045l.265.09h.035l.285.09c1.14.343 2.314.568 3.5.67h2.53c.325 0 .65-.05.975-.085l.525-.07h.04c.15-.02.3-.045.45-.075h.22l.215-.04.13-.025h.045l.2-.045.195-.045h.085l.09-.025.225-.055.15-.04.31-.09h.065l.135-.045h.09l.155-.05h.05l.255-.155.085-.035.29-.1h.04c.325-.125.64-.255.955-.395l.045-.025.065-.03.295-.135.065-.03.06-.03.355-.175a.155.155 0 0 1 .05-.025l.125-.07.11-.055.2-.11.21-.135z" fill="#FFF"/>
            <rect fill="#324550" x="70.458" y="67.896" width="41.595" height="2.385" rx="1.192"/>
            <rect fill="#324550" x="70.458" y="76.246" width="41.595" height="2.385" rx="1.192"/>
            <rect fill="#324550" x="70.458" y="85.786" width="41.595" height="2.385" rx="1.192"/>
            <rect fill="#324550" x="70.458" y="94.136" width="41.595" height="2.385" rx="1.192"/>
            <path d="M42.043 156.046h-10.71v64.195a82.545 82.545 0 0 0 10.71 5.26v-69.455z" fill="#F9DD8F"/>
            <path d="M37.283 156.046h-5.95v64.195a79.514 79.514 0 0 0 5.95 3.14v-67.335z" fill="#725733"/>
            <path d="M18.388 210.41v-54.364h-7.3v45.675a59.865 59.865 0 0 0 7.3 8.69z" fill="#F9DD8F"/>
            <path d="M11.088 201.72a59.56 59.56 0 0 0 4.175 5.386v-51.06h-4.175v45.675z" fill="#725733"/>
            <path d="M8.738 142.296h133.67v14.25H8.738a3.38 3.38 0 0 1-3.38-3.38v-7.5a3.38 3.38 0 0 1 3.38-3.37z" fill="#F9DD8F"/>
            <path d="M8.738 142.296h20.735v15H8.738a3.38 3.38 0 0 1-3.38-3.38v-8.24a3.38 3.38 0 0 1 3.38-3.38z" fill="#725733"/>
            <path d="M28.238 142.296h114.17v15H28.238a3.38 3.38 0 0 1-3.38-3.38v-8.24a3.38 3.38 0 0 1 3.38-3.38z" fill="#F9DD8F"/>
            <path d="M133.893 81.26s-27.355 25.11-32.79 31.45c-5.435 6.34-12.29 17.226-12.29 17.226l12.075 11 33.05-26.56-.045-33.115z" fill="#FDF7F2"/>
            <path d="M131.078 87.37c8.615-3.24 45.705-6.784 54.15-5.604-1.895 12.09-4.9 87.26 7.645 137.68-10.1 5.68-12.05 6.78-23.71 7.925a82.17 82.17 0 0 1-40.59-6.45c-.56-60.45.83-129.42 2.505-133.55z" fill="#00908F"/>
            <path d="M128.573 220.92c-.56-60.45.83-129.434 2.5-133.55 8.615-3.24 41.755-8.684 50.2-7.5.325 2.066-4.415 9.22-4.415 9.22l-15.235 14.23-11.625-8.07-8.905 8.386-1.33-4.435s-6.265 81.93-3.645 124.725c-3.665-.87-3.985-1.345-7.545-3.005z" fill="#04514D"/>
            <path d="M167.558 95.446s-3.425 78.9-3.875 84.53a85.07 85.07 0 0 1-5.76 24.3l10.315-1.09 7.11-101.24-2.735-11.03-5.055 4.53z" fill="#04514D"/>
            <path d="m188.323 203.21 2.5 39.206a2.58 2.58 0 0 1-2.07 2.695c-6.545 1.31-26.185 5-39.595 4.91-11.075-.065-18.96-1.93-22.88-3.12a3.931 3.931 0 0 1-2.775-3.825l.68-41.805s16.07 4.97 23.885 5.035c7.815.065 40.255-3.095 40.255-3.095z" fill="#2B2B2B"/>
            <path d="m161.468 231.386-.27-25.795c12.065-.91 27.125-2.38 27.125-2.38l2.5 39.205a2.58 2.58 0 0 1-2.07 2.695c-6.545 1.31-26.185 5-39.595 4.91-2.5 0-4.825-.125-7-.29l7.045-2a16.795 16.795 0 0 0 12.265-16.345z" fill="#111110"/>
            <path d="M185.313 198.716s-20 3.5-34.97 2.955c-14.97-.545-23.5-4.865-23.5-4.865l.09 8.77s7.59 5.755 23.37 6.27c15.78.515 36.065-5 36.065-5l-1.055-8.13z" fill="#111428"/>
            <path d="m155.493 201.716-.2 10.105c-1.69.065-3.365.08-5 .025a58.88 58.88 0 0 1-11.19-1.39l.315-9.94a78.06 78.06 0 0 0 10.91 1.155c1.68.065 3.41.07 5.165.045z" fill="#FFD31A"/>
            <path fill="#0F4341" d="m172.878 72.696-30 2.765 1.61 12.325 17.03-.785 13.035-9.725z"/>
            <path d="M139.148 97.19c-4.22 28.5-6.975 93.89-4.035 144.596-2.31.865-6-.455-15.215-4.69a2.42 2.42 0 0 1-1.415-2.24c.145-10.445.705-55.885 4.065-77.145.175-14.665 4.11-55.165 8.575-75.095 1.585-.71 7.045-2.675 10.435-4-1 7.475-1.76 11.19-2.41 18.575z" fill="#FDF7F2"/>
            <path d="M118.483 234.86c.075-5.5.265-20.64.92-36.87l2.175 35.81 5.73 6.54c-1.975-.784-4.395-1.86-7.41-3.244a2.415 2.415 0 0 1-1.415-2.235z" fill="#D1DCE8"/>
            <path d="M193.738 153.11c4.33 20.796 9.71 62.54 11.455 75.806a5.1 5.1 0 0 1-3.12 5.385c-10.455 4.295-29.845 7.56-37.225 7.25-3.5-39.715 4.94-149.5 4.94-149.5s6.55-7.8 7.44-16.5c3.095 1.03 15.77 7.34 16.65 8.115 1.14 7.335 3.11 35.72-.14 69.445z" fill="#FDF7F2"/>
            <path d="m195.438 107.94-.675-2.35-8.85-1.824 8 47.96c1.18-14.65 1.745-33.01 1.525-43.785zM195.778 223.5c1.415-5.794.56-37.724 1.66-49.464 3.3 20.71 6.47 45.27 7.735 54.885a5.095 5.095 0 0 1-3.09 5.375c-7.845 3.205-20.735 5.865-29.805 6.855 9.1-3.42 22.215-12.4 23.5-17.65z" fill="#D1DCE8"/>
            <path d="M144.238 91.656c-.175-.845 1.37-39.975 1.37-39.975l10.185-.28 9-.53 4.22 2.5-.095 4.64 2.765 27.075L160.538 97.5l-9.09-5.54-7.21-.305z" fill="#FFC6AA"/>
            <path d="m145.618 51.68 10.185-.274 9-.535 4.22 2.5-.095 4.64 1.135 10.55c-4.155 3.94-17.325 9.125-18.225 9.155-1.045.04-5-2.5-6.96-5.115.4-11.18.74-20.92.74-20.92z" fill="#BC4D4D"/>
            <path d="m141.008 40.656 1.96-11.82 15.81-1.145 15.82 1.145 2.09 11.815c.13-.125 5.53-2.54 5.29 4.685-.26 7.88-5.47 13.225-7.5 10.57-.435 1.05-1.22 6.545-1.905 8.915-.905 3.13-9.47 8.145-15 8.13-5.53-.015-11.735-4.7-12.89-8.5-1-3.215-1.085-8.2-1.53-9.245-1.75 3.36-7.04-2-7.39-9.865-.315-7.23 5.11-4.815 5.245-4.685z" fill="#FFC6AA"/>
            <path d="M141.988 44.416a7.41 7.41 0 0 0 0 2.155c.05.295.18.65.46.665.28.015 1-8.125 1.165-8.365.305-.5.965-.56 1.415-.91.65-.5.87-8.17 1.13-8.415.26-.245 8.08.72 13.255.955 2.17.1 11.085-.345 13.225.07.24.024.468.118.655.27.15.14-.3 5.45-.03 7.2.215 1.405.375 1.785 1.55 2.395.09 2.375-.545 7.14.81 7.23.185 0 .225-.685.29-.875.285-.785.595-1.56.91-2.33a24.83 24.83 0 0 1 1.955-4.155c.365-.555 1.805-2.535 1.805-2.535s1.06-5.54.815-8.335c-.245-2.795-1.595-3.57-2.33-4.17a14.185 14.185 0 0 1-1.5-4.655c-.32-2.575-1.635-2.615-2.715-3.075-1.08-.46-8.855-3.315-11.85-4.25-2.995-.935-8.97.39-10.835.655-1.865.265-11.045 5.175-11.765 6.06-.72.885-1.075 3.76-.76 4.645.315.885-2.205 7.665-2.03 8.55.09.47.375 4.55 2 7.045.925 1.63 1.855 4.055 2.35 4.715" fill="#111428"/>
            <path d="M151.173 46.656a1.32 1.32 0 0 0-.165.62 3.14 3.14 0 0 0 .265 1.865.545.545 0 0 0 .24.235.425.425 0 0 0 .465-.2c.096-.166.154-.35.17-.54.08-.5.31-1.47.065-1.935a.63.63 0 0 0-1.04-.045zM165.553 46.436a1.23 1.23 0 0 0-.165.615 3.14 3.14 0 0 0 .265 1.865.535.535 0 0 0 .235.235.42.42 0 0 0 .465-.2c.097-.166.157-.35.175-.54.08-.5.31-1.47.065-1.935a.63.63 0 0 0-1.04-.04z" fill="#121326"/>
            <path d="M163.043 41.026c.2.425.765.56 1.26.63a24.27 24.27 0 0 0 2.83.24c.171.015.343-.012.5-.08a.585.585 0 0 0 .285-.5c.035-.58-.5-1-1.05-1.3-.63-.325-1.76-.87-2.5-.645-.695.205-1.67.93-1.325 1.655z" fill="#121425"/>
            <path d="M152.878 41.74a.77.77 0 0 0 .335-.064.67.67 0 0 0 .205-.825 1.305 1.305 0 0 0-.79-.735 2.375 2.375 0 0 0-1.11-.085c-.47.06-2.26.77-1.695 1.555.225.305 1.03.17 1.365.17.55.01 1.125 0 1.69-.015z" fill="#141425"/>
            <path d="M155.558 54.5a5.3 5.3 0 0 0-.38 1.04c-.094.36-.062.742.09 1.08a2 2 0 0 0 .54.58c.67.529 1.392.986 2.155 1.366.153.087.324.139.5.15.243-.032.47-.139.65-.305a9.63 9.63 0 0 0 1.735-1.73.23.23 0 0 0 .065-.135c0-.125-.15-.165-.27-.16-1.128.059-2.258.02-3.38-.115a1.07 1.07 0 0 1-.945-.5 1.29 1.29 0 0 1-.035-.705c.285-1.9 1.25-3.665 1.325-5.585.03-.37-.017-.74-.14-1.09a.225.225 0 0 0-.1-.14c-.135-.065-.29 1.245-.325 1.43-.105.56-.23 1.115-.375 1.66a23.135 23.135 0 0 1-1.11 3.16z" fill="#BC4D4D"/>
            <path d="M153.048 17a.71.71 0 0 0-.47.426c-.05.235.037.48.225.63.179.118.386.186.6.195.72.08 1.448.043 2.155-.11a.575.575 0 0 0 .25-.1c.185-.14.215-.435.34-.645.5-.845.12-.79-.54-.78a7.115 7.115 0 0 0-2.56.385zM159.428 21.5a4.97 4.97 0 0 0-1.965.606c-.105.055-.22.22-.125.295a.13.13 0 0 0 .095 0c.79 0 1.7-.08 2.165-.835M165.563 23.63a2.145 2.145 0 0 0-.7 1.726.615.615 0 0 0 .585-.27c.146-.205.251-.436.31-.68a.93.93 0 0 0 .055-.42c-.03-.14-.14-.265-.26-.24M170.238 24.786c.06.296.203.57.41.79a1 1 0 0 0-.405-1.195" fill="#C2C5CC"/>
            <path d="M139.703 47.87c-.335-1-.7-2.094-1.5-2.804a.595.595 0 0 0-.5-.205c-.27.06-.355.42-.365.71a8.74 8.74 0 0 0 .365 2.965 8.57 8.57 0 0 1 .095-1.6c.03-.2.1-.435.285-.5a.46.46 0 0 1 .37.165c1.03 1 .88 2.6 1.69 3.625.375-.545-.25-1.775-.44-2.355zM177.613 47.87c.32-1 .675-2.094 1.445-2.804a.585.585 0 0 1 .5-.205c.275.06.36.42.375.71.059 1-.053 2.002-.33 2.965a8.59 8.59 0 0 0-.115-1.6c-.03-.2-.105-.435-.29-.5a.47.47 0 0 0-.37.165c-1 1-.85 2.6-1.65 3.625-.365-.545.25-1.775.435-2.355z" fill="#BC4D4D"/>
            <path d="M172.173 54a.43.43 0 0 1 .045.196.24.24 0 0 1-.25.22c-.275 0-.5-.24-.705-.5a6.305 6.305 0 0 1-.65-1.065 1.67 1.67 0 0 1-.2-.6c-.08-.89.5-.565.755-.21.398.62.734 1.275 1.005 1.96zM169.738 54.24a.43.43 0 0 1 .045.196.25.25 0 0 1-.25.225c-.275 0-.5-.245-.705-.5a6.5 6.5 0 0 1-.65-1.065 1.725 1.725 0 0 1-.2-.605c-.08-.885.5-.565.755-.205a11.38 11.38 0 0 1 1.005 1.955zM149.408 54.38c.032.06.05.128.05.196a.25.25 0 0 1-.255.22c-.275 0-.5-.24-.705-.5a6.65 6.65 0 0 1-.65-1.065c-.1-.187-.166-.39-.195-.6-.08-.89.5-.565.75-.21.398.62.734 1.275 1.005 1.96zM146.948 54.61c.032.06.05.128.05.196a.25.25 0 0 1-.25.22c-.28 0-.5-.24-.71-.5a7.12 7.12 0 0 1-.65-1.065 1.825 1.825 0 0 1-.195-.605c-.08-.885.5-.565.75-.21.397.621.733 1.28 1.005 1.965z" fill="#F99795"/>
            <path d="M163.468 62.5c.04.856-1.73 2.746-5.765 2.61-4.035-.134-4.72-2.11-4.61-2.5.11-.39 1.695.056 4.85.056 4.005-.015 5.49-1.02 5.525-.165z" fill="#FFF"/>
            <path d="M155.938 67.326a.215.215 0 0 0-.125 0 .19.19 0 0 0-.08.245.55.55 0 0 0 .195.205 5.5 5.5 0 0 0 1.86 1c.26.085.54.085.8 0 .17-.08.326-.189.46-.32.278-.257.537-.533.775-.825.35-.435-.045-.395-.345-.325a9.13 9.13 0 0 1-1.215.18c-.778.054-1.56 0-2.325-.16z" fill="#BC4D4D"/>
            <circle fill="#707C7B" transform="rotate(-72.55 127.954 137.943)" cx="127.954" cy="137.943" r="4.645"/>
            <path d="M127.963 139.816h-.04a1.415 1.415 0 0 1-1.055-1.655c0-.115 1.41-11.585 4.04-26.885 2.5-14.665 6.745-26.3 11.31-31.13a1.105 1.105 0 0 1 1.76.1 1.715 1.715 0 0 1-.14 2.115c-3.205 3.395-7.645 12.905-10.5 29.42-2.61 15.205-4 26.595-4 26.71a1.39 1.39 0 0 1-1.375 1.325z" fill="#0E0F1C"/>
            <circle fill="#DCEAE9" transform="rotate(-72.55 127.954 137.943)" cx="127.954" cy="137.943" r="2.77"/>
            <path d="M177.578 116.67a1.095 1.095 0 0 1-1.04-1.074l-.035-1.765c-.05-2.62-.06-3.325-.21-6.915-.5-12.3-3.24-19.695-5.63-22.5a1.105 1.105 0 0 1 .13-1.555 1.095 1.095 0 0 1 1.545.13c3.405 4 5.7 12.93 6.15 23.85.15 3.615.16 4.325.21 6.96l.035 1.765a1.105 1.105 0 0 1-1.08 1.125l-.075-.02z" fill="#0E0F1C"/>
            <path d="M172.553 142.036a1.065 1.065 0 0 1-.3-.06c-1.735-.59-2.5-1.57-2.33-5.55.775-15.695 4.225-19.85 5.265-20.745a3.605 3.605 0 0 1 2.795-.955c6.785.66 8.5 21.155 8.5 21.365.22 2.735.39 4.895-1.91 5.355a1.101 1.101 0 0 1-.43-2.16.555.555 0 0 0 .16-.05c.205-.305.055-2.175 0-2.97-.44-5.55-2.945-19-6.53-19.35a1.445 1.445 0 0 0-1.145.43c-2.935 2.535-4.215 13.255-4.5 19.185-.15 3.025.265 3.165.84 3.36a1.1 1.1 0 0 1-.405 2.145h-.01z" fill="#0E0F1C"/>
            <path d="M184.383 141.416a.88.88 0 0 1-.1.68.755.755 0 0 1-.465.21 1.305 1.305 0 0 1-1.29-.44 1.535 1.535 0 0 1-.205-.775 2.5 2.5 0 0 1 .28-1.38c.23-.385.86-.925 1.225-.555.365.37.475 1.725.555 2.26zM172.273 141.59a.855.855 0 0 0 .035.686.71.71 0 0 0 .44.255 1.31 1.31 0 0 0 1.325-.31c.163-.22.26-.482.28-.755a2.5 2.5 0 0 0-.14-1.395c-.19-.405-.765-1-1.165-.675-.4.325-.645 1.67-.775 2.195z" fill="#707C7B"/>
            <path fill="#111428" d="m157.873 98.506-7.645-7.475-5.89 6.015 4.6 5.66-7.845 75.575 6.73 10.835 8.1-10.61-3.8-75.8z"/>
            <path d="M142.873 75.38c.86.39 5.395 12.74 7.275 14.056 1.725-1.5 21.915-16.335 22.725-16.815.12-.135 4.59 3.86 4.765 4.73-.14 5.57-15.155 23.705-16.135 24.225-.98.52-9.255-8.1-11.5-9.43-2.11 1.575-7.35 9.04-8.315 8.66-.965-.38-2-13.165-2.345-19.06.325-1.105 2.76-5.245 3.53-6.365z" fill="#22C7BF"/>
            <path d="M94.238 123.666c-6.675 2.94-7.18 10.31-3.135 14.2 7.53 7.25 35.61 6.745 35.61 6.745s9.69-10.43 5.76-15.255c-2.075-2.065-30.485-9.585-38.235-5.69z" fill="#FDF7F2"/>
            <path d="M130.038 139.396c-4.37.895-13.89 2.475-21.35 1.03-6.605-1.28-15.135-5.72-20.16-8.585a8.39 8.39 0 0 0 2.565 6.025c7.53 7.25 35.61 6.745 35.61 6.745s1.485-2.385 3.335-5.215z" fill="#D1DCE8"/>
            <path d="M132.273 130.38c-2.975-1.904-6.255-.14-8.155 1.636-1.9 1.775-3.665 4.8-3.34 7.38.325 2.58 2.885 4.605 5.46 5.105a3.685 3.685 0 0 0 1.585 0 4.115 4.115 0 0 0 1.745-1.055c2-1.85 2.975-4.5 3.9-7.055.585-1.705.89-4.67-1.195-6.01z" fill="#00908F"/>
            <path d="M127.863 144.446c-1.965-.89-5.43-2.815-5.705-5.395-.26-2.41 1.8-5.925 3.205-8-.44.292-.856.618-1.245.975-1.905 1.775-3.665 4.8-3.34 7.38.325 2.58 2.885 4.595 5.46 5.095a3.685 3.685 0 0 0 1.585 0l.04-.055z" fill="#04514D"/>
            <ellipse fill="#514F4E" transform="rotate(-67.59 116.982 142.2)" cx="116.982" cy="142.201" rx="1.225" ry="1.4"/>
            <ellipse fill="#514F4E" transform="rotate(-67.59 112.417 141.669)" cx="112.417" cy="141.669" rx="1.225" ry="1.4"/>
            <ellipse fill="#514F4E" transform="rotate(-67.59 107.851 141.137)" cx="107.851" cy="141.137" rx="1.225" ry="1.4"/>
            <path d="M186.158 79.92s9.67 1.9 11.42 3.146c4.11 2.93 18.5 57.46 19.35 60.525.85 3.065-1.88 11.89-5.155 12.775-3.275.885-9.415.105-9.96-1.525-.545-1.63-16.325-45.745-16.95-48.415-.625-2.67-2.625-18.045 1.295-26.505z" fill="#FDF7F2"/>
            <path fill="#FFC6AA" d="m175.733 117.896-3.75-2.915-6.595 9.93 3.595 3.75z"/>
            <path d="M179.138 114.96s-3.035 5.25-5.795 9.36c-2.76 4.11-5.275 9.946-5.275 9.946a32.285 32.285 0 0 0 8.17-7.86c3.595-5 2.9-11.445 2.9-11.445z" fill="#D1C1B6"/>
            <path d="m181.093 118.82-5-4.314a81.145 81.145 0 0 1-4.28 7.95c-1.975 3-5.05 7.46-5.05 7.46l6.85 4.645 7.48-15.74z" fill="#00908F"/>
            <path d="m177.683 115.866 3.41 2.955-7.46 15.74-4.895-3.315a49.285 49.285 0 0 0 5.61-7.245 32.945 32.945 0 0 0 3.335-8.135z" fill="#04514D"/>
            <path d="m209.703 135.26-30.565-20.3s-.36 4.626-4 10.656a38.04 38.04 0 0 1-7.08 8.65s33.795 22.04 37.1 23.465c3.305 1.425 12.34-3.625 12.81-6.815.47-3.19-.385-7.21-.385-7.21l-7.88-8.445z" fill="#FDF7F2"/>
            <path d="M172.503 129.466c6 4.745 18.13 14.27 24.035 18 5 3.16 12.88 5.85 18.04 7.415-3.055 2.13-7.35 3.76-9.41 2.87-3.305-1.425-37.1-23.465-37.1-23.465a34.91 34.91 0 0 0 4.435-4.82z" fill="#D1DCE8"/>
            <path d="M168.578 109.11c-1.3-1.11-5.94-2.14-5.94-2.14s-4.695-5.134-5.155-5.57c-.655-.63-2.075 1.766-1.72 2.766.355 1 3.11 4.655 3.87 5.5l.035.045-15.675-2.065a1.555 1.555 0 0 0-1.71 1.175 1.55 1.55 0 0 0 1.06 1.85l7.5 2.245c-.276.165-.46.45-.5.77l-.34 2.845c-.059.48.215.941.665 1.12l.36.145.925 3.895c.131.539.651.89 1.2.81l2.12-.2-1.975.235a.53.53 0 0 0-.44.75l1.27 3c.142.319.507.474.835.355l3.805-1.535c2 .095 5.63.15 7.315-.61a28.38 28.38 0 0 0 3.95-2.13l1.775-2.85-.34-1.27c.65.215 1.09.35 1.09.35l-.77-4.335s-1.915-4.04-3.21-5.15z" fill="#FFC6AA"/>
            <circle fill="#514F4E" cx="175.268" cy="135.691" r="1.4"/>
            <circle fill="#514F4E" cx="179.753" cy="138.331" r="1.4"/>
            <circle fill="#514F4E" cx="184.238" cy="140.976" r="1.4"/>
            <path fill="#D1DCE8" d="m205.493 133.406 6.35 2.2 1.83 4zM118.873 125.19s-7.61-2.064-9.405-2.154l2.675-1.26 6.73 3.415z"/>
            <path d="M141.398 153.316a4.34 4.34 0 0 0-.32-.825c.835-.595 1.195-1.75 1.21-3.29.03-2.735-1.895-6.755-3.105-9.065-1.5-2.87-3.4-5.6-5.965-7-2.035-1.1-5-1.29-6.865.45-1.715 1.61-1.785 4.85-1.74 7.27.12 6.4-.17 6.81 1.38 12.935.185.72.42 1.5.96 1.88.346.18.712.318 1.09.41 1.61.615 2.62 3.175 4.3 2.955.62-.08 1.16-.555 1.755-.795l1.545 1.645c.393.524.98.868 1.63.955a1.845 1.845 0 0 0 1.74-1.275c.24.455.475.915.71 1.375.235.46.59 1.075 1.145 1.23.745.21 1.5-.5 1.655-1.235.155-.735-.45-5.26-1.125-7.62z" fill="#FFC6AA"/>
            <circle fill="#6FDDF1" transform="rotate(-85.01 106.189 26.21)" cx="106.189" cy="26.21" r="14.62"/>
            <path d="M103.508 33a1.46 1.46 0 0 1-1-.46l-5.725-6.13a1.457 1.457 0 0 1 2.12-2l4.725 5.09 9.11-8.5a1.457 1.457 0 1 1 2 2.12l-10.17 9.5a1.47 1.47 0 0 1-1.06.38z" fill="#FFF"/>
            <path fill="#6FDDF1" d="m95.433 34.676-2.81 7.48 9.2-2.785z"/>
            <path d="M187.608 110.88s1.05-7.584 2.355-10.59c1.305-3.004 1.965-4.84 1.965-4.84l-4.97 5.886.65 9.545z" fill="#D1DCE8"/>
            <path d="M194.798 61.5h-2.905v-2.904a1.65 1.65 0 0 0-3.295 0V61.5h-2.905a1.65 1.65 0 0 0 0 3.295h2.905V67.7a1.65 1.65 0 0 0 3.295 0v-2.905h2.905a1.65 1.65 0 0 0 0-3.295zM107.488 211.29h-2.905v-2.904a1.645 1.645 0 1 0-3.29 0v2.905h-2.905a1.645 1.645 0 1 0 0 3.29h2.905v2.92a1.645 1.645 0 0 0 3.29 0v-2.905h2.905a1.645 1.645 0 1 0 0-3.29v-.015zM55.238 27.026h-2.905V24.12a1.65 1.65 0 0 0-3.295 0v2.905h-2.9a1.645 1.645 0 1 0 0 3.29h2.9v2.905a1.65 1.65 0 1 0 3.295 0v-2.905h2.905a1.645 1.645 0 0 0 0-3.29z" fill="#FFF"/>
            <circle fill="#FF9A00" cx="67.338" cy="188.211" r="15.27"/>
            <path d="M66.773 179.886c5.115-.125 9.335 2.94 9.43 6.835.065 2.935-2.225 5.5-5.54 6.645l.17 3.28-2.825-2.705c-.3.025-.6.045-.9.055-5.115.12-9.34-2.94-9.43-6.84-.09-3.9 3.98-7.155 9.095-7.27z" fill="#FFF"/>
        </g>
    </g>
</svg>
