<svg xmlns="http://www.w3.org/2000/svg" width="261" height="191" viewBox="0 0 261 191">
    <g fill="none">
        <path fill="#C1EEF4" d="M260.385 124.66C264.978 67.415 226.503 8.626 128.33 10.547 33.312 12.404.856 68.317 1.77 132.346c.912 61.676 104.109 56.5 140.895 56.574 71.76.063 113.4-9.973 117.721-64.26z"/>
        <path fill="#B5E4E8" d="M141.864 188.92h8.636c-.095-.808-.19-1.626-.296-2.433-3.167-22.48-13.808-43.164-25.337-62.77-13.724-23.328-28.99-46.153-49.291-64.09-10.568-9.476-22.602-17.2-35.641-22.877C10.745 59.386-.52 94.442.018 132.393c.919 61.625 104.812 56.454 141.846 56.527z"/>
        <path fill="#B5E4E8" d="M194.29 85.117c-22.408 19.32-43.037 44.974-54.73 72.172-4.21 9.782-8.947 20.667-11.81 31.711 5.484 0 10.388-.084 14.483-.084 72.023.063 113.818-9.992 118.154-64.379 1.874-23.423-3.462-47.098-17.135-66.787-12.682 1.64-33.217 13.789-48.962 27.367z"/>
        <path fill="#324550" d="M245 179.967c0 5.952-52.5 10.783-117.25 10.783S10.5 185.92 10.5 179.967c0-5.953 52.49-1.81 117.25-1.81 64.76 0 117.25-4.153 117.25 1.81z"/>
        <path fill="#AFD95F" d="M185.806 174.042c8.86-1.78 15.602-6.32 21.296-11.377 8.541-7.55 15.284-16.548 17.866-27.128.893-3.176 1.023-6.51.381-9.743-.732-3.569-3.225-6.551-6.657-7.964-2.92-.945-6.102-.73-8.86.6-9.896 4.137-14.817 12.68-18.109 21.337-3.292 8.656-5.387 17.933-11.304 25.287-1.969 2.451-4.371 4.706-5.419 7.602 2.428 1.657 5.351 2.476 8.309 2.327 2.542-.205 5.04-.78 7.409-1.707"/>
        <path fill="#E0FAA2" d="M183.02 173.25c-.274-.008-.536-.118-.738-.308-.349-.318-.38-.763-.062-.986 13.836-9.885 27.283-32.582 29.63-45.511.061-.361.482-.541.943-.393.415.091.711.473.707.912-2.368 13.11-16.009 36.136-30.04 46.159-.131.086-.284.13-.44.127z"/>
        <path fill="#C2F271" d="M181.26 177.39c-2.46-.742 0-7.31 2.83-8.114 8.61-2.307 15.142-7.674 22.268-12.08 7.125-4.407 15.576-7.958 25.744-6.266 2.85.333 5.493 1.632 7.475 3.676 2.016 2.386 2.488 5.69 1.22 8.53-1.112 2.632-2.98 4.886-5.376 6.485-20.443 13.637-41.384 11.622-54.161 7.769z"/>
        <path fill="#F7FFEE" d="M188.053 173.25c-.4.008-.744-.282-.797-.675-.026-.203.032-.407.16-.567.13-.16.318-.262.524-.282 15.717-1.729 31.057-5.917 45.443-12.407.386-.171.841-.014 1.035.358.094.184.108.398.037.591-.07.194-.219.35-.41.432-14.537 6.568-30.042 10.804-45.93 12.55h-.062z"/>
        <path fill="#213038" d="M18.415 95.74L82.959 95.638 82.946 103.869 18.402 103.971z" transform="rotate(-133.78 50.68 99.805)"/>
        <path fill="#213038" d="M133.598 95.539L198.142 95.642 198.155 103.872 133.611 103.77z" transform="rotate(-46.22 165.877 99.706)"/>
        <path fill="#FF9A00" d="M101.5 178.5H60.385c-2.141-.004-3.923-1.622-4.1-3.724l-5.523-67.164c-.088-1.125.304-2.235 1.082-3.064.778-.828 1.872-1.298 3.018-1.298h45.512l1.126 75.25z"/>
        <path fill="#FFCE00" d="M191.301 178.5H97.294l-1.044-72.342c-.014-.766.28-1.506.816-2.053.536-.547 1.268-.855 2.033-.855h98.118c1.131-.001 2.21.474 2.974 1.31.764.835 1.143 1.955 1.043 3.084l-5.916 67.163c-.183 2.088-1.926 3.69-4.017 3.693z"/>
        <path fill="#516772" d="M108.524 122.938l-41.88-43.564 5.952-5.685 41.88 43.564c1.575 1.638 1.52 4.239-.124 5.809-1.644 1.57-4.253 1.514-5.828-.124z"/>
        <path fill="#213038" d="M227.5 78.75L191.405 78.75 185.5 73.5 221.595 73.5z"/>
        <path fill="#516772" d="M65.8 78.75L24.5 78.664 30.45 73.5 71.75 73.586zM179.765 117.16l41.88-43.564 5.951 5.686-41.88 43.564c-.756.786-1.795 1.241-2.888 1.265-1.093.023-2.15-.388-2.94-1.142-1.643-1.57-1.698-4.17-.123-5.809z"/>
        <circle cx="182.875" cy="119.875" r="2.625" fill="#A6A6A6"/>
        <circle cx="182.875" cy="119.875" r="2.625" fill="#FFF"/>
        <circle cx="111.125" cy="119.875" r="2.625" fill="#A6A6A6"/>
        <circle cx="112.875" cy="119.875" r="2.625" fill="#FFF"/>
        <path fill="#FFEB97" d="M116.813 168L108.5 168 108.948 134.75 117.25 134.75zM133.687 168L126 168 127.063 134.75 134.75 134.75zM151.067 168L143.5 168 144.683 134.75 152.25 134.75zM168.287 168L161 168 162.453 134.75 169.75 134.75zM185.873 168L178.5 168 179.887 134.75 187.25 134.75zM89.25 168L82.077 168 80.5 134.75 87.663 134.75zM73.5 168L65.6 168 63 134.75 70.9 134.75z"/>
        <ellipse cx="140.698" cy="29.202" fill="#324550" rx="4.776" ry="5.322" transform="rotate(-45 140.698 29.202)"/>
        <ellipse cx="135.08" cy="34.812" fill="#FFCE00" rx="8.944" ry="7.821" transform="rotate(-45 135.08 34.812)"/>
        <path fill="#324550" d="M126.636 33.25c-.391.975-.607 2.012-.636 3.063 3.187 1.652 5.784 4.25 7.434 7.437 1.053-.032 2.09-.25 3.066-.646-.78-2.284-2.095-4.349-3.837-6.02-1.672-1.743-3.74-3.058-6.027-3.834zM133.142 26.25c-1.355.484-2.595 1.243-3.642 2.231 2.83.699 5.398 2.202 7.395 4.328 2.154 1.999 3.676 4.586 4.377 7.441.983-1.047 1.74-2.285 2.228-3.637-.842-2.38-2.226-4.53-4.043-6.28-1.755-1.84-3.919-3.238-6.315-4.083zM145.501 28c-.098 0-.187-.079-.225-.2-.03-.078-.034-.168-.013-.25.021-.082.067-.15.125-.187 1.524-.955 3.222-1.306 4.893-1.012.066.009.128.054.169.125.04.071.058.161.047.25-.024.178-.146.303-.282.287-1.574-.283-3.175.047-4.61.95L145.5 28zM142.08 26.25h-.138c-.165-.064-.236-.213-.163-.34.906-1.442 1.242-3.049.966-4.63-.015-.087.032-.174.126-.228.093-.054.217-.067.326-.033.109.033.186.108.201.196.296 1.676-.057 3.382-1.017 4.911-.059.083-.177.13-.301.123zM129.5 41.282c-.62.619-1.354.89-1.639.605-.285-.285 0-1.018.606-1.637.265.025.515.135.712.313.18.2.292.452.321.719z"/>
        <path fill="#EDF8F9" d="M147.617 35.087c1.51.672 2.792 1.785 3.684 3.198 1.73 2.65 1.029 6.23-1.565 7.996s-6.098 1.05-7.827-1.6c-.59-.864-1.055-1.812-1.378-2.814-.584-1.563-1.12-3.152-1.607-4.765-.365-1.194-1.44-3.198.25-3.635 2.578-.714 6.19.469 8.443 1.62zM136.32 21.941c-.692-1.543-1.839-2.852-3.296-3.764-2.727-1.378-6.083-.596-7.867 1.834-1.604 2.544-1.033 5.847 1.34 7.742.887.606 1.86 1.084 2.89 1.418 1.626.587 3.296 1.141 4.911 1.643 1.242.373 3.297 1.471 3.758-.267.67-2.613-.516-6.292-1.736-8.606z"/>
        <path fill="#324550" d="M121.311 47.25c-.156.002-.305-.075-.407-.21-.205-.244-.205-.631 0-.875.855-.851 1.71-1.656 2.525-2.333.239-.155.541-.085.708.165.167.25.147.603-.047.827-.804.7-1.639 1.48-2.473 2.332-.092.066-.198.098-.306.094zM121.299 91c-.27 0-.502-.18-.558-.431-.354-1.521-.534-3.075-.536-4.633-.004-.607.024-1.214.085-1.818.029-.297.301-.517.612-.493.15.01.29.078.386.189.097.11.144.253.129.396-.043.565-.043 1.182-.043 1.726.003 1.479.172 2.952.504 4.396.038.141.014.29-.067.413-.082.123-.213.208-.362.234l-.15.021zm7.348-1.931h-1.62c-.547 0-1.073-.072-1.512-.134-.242.047-.488-.062-.608-.268-.12-.206-.088-.463.08-.636.167-.173.433-.223.656-.123.472 0 .966.093 1.448.123 1.66.11 3.326.038 4.967-.215.217-.105.48-.066.653.096.174.162.22.413.117.623-.104.21-.336.334-.577.308-1.192.172-2.398.248-3.604.226zm-9.483-1.623c-.063.014-.13.014-.193 0-2.119-.755-4.116-1.793-5.932-3.081-.246-.183-.298-.518-.118-.76.187-.241.542-.292.794-.114 1.73 1.228 3.633 2.213 5.653 2.928.288.11.435.418.332.698-.091.204-.304.335-.536.329zm19.062-1.027c-.182-.002-.353-.085-.461-.226-.087-.119-.121-.265-.095-.408.026-.143.11-.27.234-.352 1.743-1.184 3.205-2.706 4.291-4.468.097-.18.29-.293.501-.295.211-.002.406.109.506.287.1.178.088.395-.03.562-1.164 1.91-2.745 3.557-4.635 4.828-.094.052-.202.077-.31.072zm-29.424-6.543c-.186.001-.36-.088-.462-.236-1.296-1.786-2.257-3.774-2.842-5.876-.02-.258.153-.493.413-.563.26-.07.536.046.66.276.55 1.983 1.458 3.86 2.681 5.546.173.25.107.588-.15.76-.085.069-.19.112-.3.124v-.031zm13.645-1.274c-.075.015-.151.015-.226 0-.287-.122-.42-.44-.3-.719.878-1.996 2.068-3.852 3.53-5.506.206-.225.562-.252.804-.061.115.092.186.224.199.367.012.143-.037.285-.135.393-1.387 1.573-2.516 3.34-3.347 5.239-.105.182-.308.294-.525.287zm22.173-2.763c-.15-.01-.29-.078-.387-.189-.097-.11-.143-.253-.128-.396V74.299c.04-1.256-.244-2.501-.826-3.627-.196-.364-.43-.708-.698-1.027-.152-.144-.208-.357-.143-.553.065-.195.24-.34.451-.372.212-.033.424.05.55.216.324.362.608.755.848 1.171.662 1.275.99 2.686.955 4.11v.43c.01.202.01.405 0 .607.013.158-.047.315-.165.427-.118.113-.28.17-.447.158h-.01zm-13.742-6.707c-.202-.001-.389-.102-.493-.267-.079-.124-.103-.273-.067-.414.037-.14.13-.262.26-.336 1.814-1.082 3.884-1.708 6.018-1.818h.547c.152 0 .297.059.402.163.105.105.161.246.156.391-.023.296-.28.525-.59.524h-.472c-1.942.1-3.825.672-5.471 1.664-.084.053-.18.085-.28.093h-.01zm-25.305-1.202h-.075c-.311-.038-.532-.308-.494-.606.054-.4.129-.801.215-1.192.396-1.726 1.03-3.395 1.888-4.96.064-.132.182-.233.326-.28.143-.046.3-.034.435.033.278.137.388.462.247.729-.8 1.48-1.392 3.055-1.76 4.684-.085.37-.15.74-.203 1.12-.038.276-.288.48-.58.472zm5.556-11.299c-.125.004-.247-.037-.343-.113-.121-.086-.201-.215-.221-.358-.02-.143.02-.288.114-.402 1.334-1.689 2.766-3.304 4.29-4.838.14-.141.349-.2.546-.155.198.045.355.188.413.375.058.187.008.389-.132.53-1.52 1.506-2.952 3.09-4.291 4.745-.088.12-.225.197-.376.216zM127.113 99.747c-.196.006-.384-.063-.505-.186-.858-.807-1.628-1.671-2.303-2.582-.133-.242-.017-.525.27-.658.286-.133.652-.074.85.138.64.872 1.364 1.703 2.168 2.483.115.104.17.24.154.378-.016.138-.103.264-.24.349-.116.062-.255.09-.394.078z"/>
        <path fill="#4BCBCE" d="M53.172 173.983c-7.25-1.766-13.436-6.08-18.921-10.843-8.227-7.124-15.37-15.595-19.622-25.487-1.341-2.86-2.144-5.936-2.37-9.077-.107-2.81.797-6.09 3.465-7.312 2.221-1.044 4.836-.334 6.994.68 8.557 4 14.19 11.99 18.57 20.096 4.379 8.106 7.993 16.713 14.148 23.69 2.051 2.31 4.379 4.44 5.814 7.145-1.561 1.537-3.743 2.304-5.942 2.09-2.122-.239-4.192-.807-6.133-1.682"/>
        <path fill="#87F5F2" d="M53.833 173.25C40.838 164.08 25.51 143.272 21 131.508l.677-.258c4.467 11.681 19.681 32.314 32.573 41.41l-.417.59z"/>
        <path fill="#5EDEDE" d="M60.466 179.479c1.943-.633-.063-6.093-2.355-6.704-6.887-1.855-12.157-6.261-17.956-9.876-5.798-3.616-12.452-6.472-20.532-5.007-2.276.296-4.37 1.396-5.904 3.099-1.58 2.02-1.913 4.744-.866 7.083.913 2.163 2.431 4.018 4.372 5.344 12.663 8.677 28.673 10.92 43.241 6.06z"/>
        <path fill="#87F5F2" d="M55.928 175c-12.691-1.322-25.078-4.653-36.678-9.863l.3-.637c11.527 5.18 23.837 8.49 36.45 9.803l-.072.697z"/>
        <path fill="#5EDEDE" d="M57.145 178.173c1.419 1.13 4.863-.85 3.955-3.11-2.724-6.864-4.613-17.543-5.75-24.676-1.138-7.133-3.204-14.515-8.443-20.03-1.325-1.38-3.057-2.686-4.967-2.603-2.285.093-3.788 2.167-4.435 4.21-.724 2.347-.93 4.822-.605 7.257 2.765 20.932 12.877 33.125 20.245 38.952z"/>
        <path fill="#87F5F2" d="M57.098 173.25C50.47 161.16 45.396 148.285 42 134.931l.716-.181c3.382 13.282 8.433 26.085 15.034 38.106l-.652.394z"/>
        <path fill="#FFCE00" d="M160.45 9.505l-9.187 7.64c-.3.248-.695.375-1.096.352-.4-.023-.775-.194-1.041-.476-.265-.283-.4-.652-.373-1.027.027-.376.212-.725.515-.973l9.187-7.639c.303-.265.71-.403 1.124-.38.415.024.801.206 1.068.503.259.29.384.663.347 1.038-.037.376-.233.722-.544.962z"/>
        <path fill="#FFF" d="M246.236 97.017l-9.154 7.612c-.305.26-.71.393-1.122.368-.413-.025-.796-.206-1.063-.5-.277-.286-.419-.663-.394-1.047.024-.384.214-.743.525-.994l9.165-7.602c.3-.248.693-.374 1.092-.351.4.023.773.193 1.038.474.288.276.442.652.426 1.037-.017.386-.202.749-.513 1.003z"/>
        <path fill="#FFCE00" d="M166.629 26.002l-11.218.248c-.764.013-1.394-.703-1.41-1.603-.006-.433.136-.85.393-1.16.257-.31.61-.486.977-.49l11.218-.247c.764-.013 1.394.703 1.41 1.603.006.433-.136.85-.393 1.16-.257.31-.61.486-.977.49z"/>
        <path fill="#FFF" d="M24.322 104.908l-11.076-3.873c-.364-.124-.667-.401-.84-.77-.174-.368-.204-.797-.083-1.19.122-.402.39-.734.742-.92.352-.184.758-.205 1.125-.059l11.076 3.862c.75.273 1.158 1.153.912 1.97-.122.4-.388.73-.738.915-.35.184-.752.207-1.118.065z"/>
        <path fill="#FFCE00" d="M146.996 1.492l-.798 11.185c-.017.374-.181.725-.454.974-.273.248-.632.373-.995.345-.357-.025-.688-.196-.922-.473-.234-.278-.35-.64-.323-1.006l.807-11.185c.013-.372.17-.722.438-.972.267-.25.621-.38.982-.358.362.02.7.19.938.47.238.281.356.649.327 1.02zM205.571 12.25c-2.409-.03-4.34-2.002-4.32-4.41.019-2.41 1.983-4.35 4.392-4.34 2.409.01 4.357 1.966 4.357 4.375 0 1.17-.468 2.29-1.3 3.112-.833.823-1.96 1.277-3.129 1.263zm0-6.466c-.843-.004-1.605.5-1.93 1.279-.325.778-.147 1.675.449 2.271.596.597 1.493.774 2.271.45.778-.325 1.283-1.088 1.28-1.93-.013-1.135-.936-2.048-2.07-2.048v-.022z"/>
        <path fill="#2C8C8C" d="M60.375 50.75c-2.416 0-4.375-1.959-4.375-4.375S57.959 42 60.375 42s4.375 1.959 4.375 4.375-1.959 4.375-4.375 4.375zm0-6.434c-.843-.004-1.606.501-1.93 1.28-.325.778-.148 1.675.448 2.271.597.597 1.494.774 2.272.45.779-.325 1.284-1.088 1.28-1.931 0-1.145-.925-2.075-2.07-2.08v.01z"/>
        <path fill="#FFF" d="M163.637 73.5c-1.772.005-3.372-1.06-4.052-2.695-.68-1.636-.306-3.52.947-4.773 1.252-1.253 3.137-1.627 4.773-.947 1.635.68 2.7 2.28 2.695 4.052 0 1.157-.46 2.267-1.278 3.085-.818.818-1.928 1.278-3.085 1.278zm0-6.389c-.84-.005-1.598.497-1.923 1.271-.324.774-.15 1.667.442 2.262s1.484.774 2.26.454c.775-.32 1.28-1.076 1.28-1.915 0-1.14-.92-2.065-2.06-2.072z"/>
    </g>
</svg>
