<svg viewBox="0 0 23.6 24.2" xmlns="http://www.w3.org/2000/svg" xmlns:xlink="http://www.w3.org/1999/xlink"><linearGradient id="a" gradientTransform="matrix(24.72 0 0 24.67 12246.64 -1442.01)" gradientUnits="userSpaceOnUse" x1="-495.41" x2="-494.45" y1="58.93" y2="58.93"><stop offset="0" stop-color="#70cbd0"/><stop offset="1" stop-color="#459999"/></linearGradient><linearGradient id="b" gradientTransform="matrix(3.57 0 0 10.16 1337.5 -1020.26)" gradientUnits="userSpaceOnUse" x1="-371.33" x2="-371.33" y1="101.26" y2="101.76"><stop offset="0" stop-color="#fed402"/><stop offset="1" stop-color="#f49f1e"/></linearGradient><linearGradient id="c" gradientTransform="matrix(10.18 0 0 3.56 4745.7 -828.63)" x1="-465.47" x2="-464.99" xlink:href="#b" y1="235.93" y2="235.93"/><ellipse cx="11.8" cy="12.1" fill="url(#a)" rx="11.8" ry="12.1"/><g fill-rule="evenodd"><path d="m19.1 16.8-1.1-1.1a7.84 7.84 0 0 0 -1.8-10.1 7.5 7.5 0 0 0 -10 .5 8 8 0 0 0 -.8 10.3 7.55 7.55 0 0 0 9.8 2.2l1.1 1.1a1.9 1.9 0 0 0 2.7 0 2.26 2.26 0 0 0 .1-2.9z" fill="#fff"/><path d="m13.5 8.8a1.75 1.75 0 0 0 -1.7-1.7 1.69 1.69 0 0 0 -1.7 1.7v6.6a1.75 1.75 0 0 0 1.7 1.7 1.67 1.67 0 0 0 1.7-1.6z" fill="url(#b)"/><path d="m8.6 10.4a1.7 1.7 0 0 0 0 3.4h6.4a1.67 1.67 0 0 0 1.6-1.7 1.83 1.83 0 0 0 -1.6-1.8z" fill="url(#c)"/></g></svg>