<svg enable-background="new 0 0 88 25" viewBox="0 0 88 25" xmlns="http://www.w3.org/2000/svg" xmlns:xlink="http://www.w3.org/1999/xlink"><linearGradient id="a" gradientTransform="matrix(24.7204 0 0 -24.6733 6191.0293 9708.3936)" gradientUnits="userSpaceOnUse" x1="-249.2316" x2="-248.2785" y1="392.9702" y2="392.9702"><stop offset="0" stop-color="#70cbd0"/><stop offset="1" stop-color="#459999"/></linearGradient><linearGradient id="b"><stop offset="0" stop-color="#fed402"/><stop offset="1" stop-color="#f49f1e"/></linearGradient><linearGradient id="c" gradientTransform="matrix(3.5701 0 0 -10.1584 681.3785 3779.0532)" gradientUnits="userSpaceOnUse" x1="-179.1756" x2="-179.1756" xlink:href="#b" y1="371.1449" y2="370.6455"/><linearGradient id="d" gradientTransform="matrix(10.1778 0 0 -3.5633 2402.6831 1084.9568)" gradientUnits="userSpaceOnUse" x1="-232.3275" x2="-231.8425" xlink:href="#b" y1="300.9681" y2="300.9681"/><g clip-rule="evenodd" fill-rule="evenodd"><ellipse cx="41.7" cy="12.5" fill="url(#a)" rx="11.8" ry="12.1"/><path d="m49 17.2-1.1-1.1c2-3.4 1.2-7.7-1.8-10.1s-7.3-2.2-10 .5-3.1 7.1-.8 10.3c2.3 3.1 6.5 4.1 9.8 2.2l1.1 1.1c.8.8 2 .7 2.7 0s.8-2.1.1-2.9z" fill="#fff"/><path d="m43.4 9.2c0-.9-.8-1.7-1.7-1.7s-1.7.7-1.7 1.7v6.6c0 .9.8 1.7 1.7 1.7s1.7-.7 1.7-1.6z" fill="url(#c)"/><path d="m38.5 10.8c-.9 0-1.6.8-1.6 1.7s.7 1.7 1.6 1.7h6.4c.9 0 1.6-.8 1.6-1.7s-.7-1.7-1.6-1.8z" fill="url(#d)"/></g></svg>