<?xml version="1.0" encoding="utf-8"?>
<!-- Generator: Adobe Illustrator 25.0.0, SVG Export Plug-In . SVG Version: 6.00 Build 0)  -->
<svg version="1.1" id="Layer_1" xmlns="http://www.w3.org/2000/svg" xmlns:xlink="http://www.w3.org/1999/xlink" x="0px" y="0px"
	 viewBox="0 0 88 25" style="enable-background:new 0 0 88 25;" xml:space="preserve">
<style type="text/css">
	.st0{fill-rule:evenodd;clip-rule:evenodd;fill:url(#Oval_1_);}
	.st1{fill-rule:evenodd;clip-rule:evenodd;fill:#FFFFFF;}
	.st2{fill-rule:evenodd;clip-rule:evenodd;fill:url(#Path_1_);}
	.st3{fill-rule:evenodd;clip-rule:evenodd;fill:url(#Path_2_);}
</style>
<desc>Created with Sketch.</desc>
<g id="Symbol">
	<g id="Bar_x2F_Search_x2F_Home" transform="translate(-120.000000, -8.000000)">
		<g id="logo" transform="translate(120.000000, 8.000000)">
			
				<linearGradient id="Oval_1_" gradientUnits="userSpaceOnUse" x1="-249.2316" y1="392.9702" x2="-248.2785" y2="392.9702" gradientTransform="matrix(24.7204 0 0 -24.6733 6191.0293 9708.3936)">
				<stop  offset="0" style="stop-color:#70CBD0"/>
				<stop  offset="1" style="stop-color:#459999"/>
			</linearGradient>
			<ellipse id="Oval" class="st0" cx="41.7" cy="12.5" rx="11.8" ry="12.1"/>
			<path id="Path_3_" class="st1" d="M49,17.2l-1.1-1.1c2-3.4,1.2-7.7-1.8-10.1c-3-2.4-7.3-2.2-10,0.5s-3.1,7.1-0.8,10.3
				c2.3,3.1,6.5,4.1,9.8,2.2l1.1,1.1c0.8,0.8,2,0.7,2.7,0S49.7,18,49,17.2L49,17.2z"/>
			
				<linearGradient id="Path_1_" gradientUnits="userSpaceOnUse" x1="-179.1756" y1="371.1449" x2="-179.1756" y2="370.6455" gradientTransform="matrix(3.5701 0 0 -10.1584 681.3785 3779.0532)">
				<stop  offset="0" style="stop-color:#FED402"/>
				<stop  offset="1" style="stop-color:#F49F1E"/>
			</linearGradient>
			<path id="Path_4_" class="st2" d="M43.4,9.2c0-0.9-0.8-1.7-1.7-1.7c-0.9,0-1.7,0.7-1.7,1.7l0,0v0l0,6.6c0,0.9,0.8,1.7,1.7,1.7
				c0.9,0,1.7-0.7,1.7-1.6l0,0l0,0L43.4,9.2z"/>
			
				<linearGradient id="Path_2_" gradientUnits="userSpaceOnUse" x1="-232.3275" y1="300.9681" x2="-231.8425" y2="300.9681" gradientTransform="matrix(10.1778 0 0 -3.5633 2402.6831 1084.9568)">
				<stop  offset="0" style="stop-color:#FED402"/>
				<stop  offset="1" style="stop-color:#F49F1E"/>
			</linearGradient>
			<path id="Path_5_" class="st3" d="M38.5,10.8c-0.9,0-1.6,0.8-1.6,1.7c0,0.9,0.7,1.7,1.6,1.7h0l6.4,0c0.9,0,1.6-0.8,1.6-1.7
				c0-0.9-0.7-1.7-1.6-1.8l0,0l0,0L38.5,10.8z"/>
		</g>
	</g>
</g>
</svg>
