<?xml version="1.0" encoding="UTF-8"?>
<svg width="88px" height="25px" viewBox="0 0 88 25" version="1.1" xmlns="http://www.w3.org/2000/svg" xmlns:xlink="http://www.w3.org/1999/xlink">
    <!-- Generator: Sketch 59.1 (86144) - https://sketch.com -->
    <title>logo</title>
    <desc>Created with Sketch.</desc>
    <defs>
        <linearGradient x1="0%" y1="50%" x2="99.9864901%" y2="50%" id="linearGradient-1">
            <stop stop-color="#70CBD0" offset="0%"></stop>
            <stop stop-color="#459999" offset="100%"></stop>
        </linearGradient>
        <linearGradient x1="50.0467727%" y1="12.8674372%" x2="50.0467727%" y2="63.7285845%" id="linearGradient-2">
            <stop stop-color="#FED402" offset="0%"></stop>
            <stop stop-color="#F49F1E" offset="100%"></stop>
        </linearGradient>
        <linearGradient x1="12.8346235%" y1="49.9532273%" x2="63.7285845%" y2="49.9532273%" id="linearGradient-3">
            <stop stop-color="#FED402" offset="0%"></stop>
            <stop stop-color="#F49F1E" offset="100%"></stop>
        </linearGradient>
    </defs>
    <g id="Symbol" stroke="none" stroke-width="1" fill="none" fill-rule="evenodd">
        <g id="Bar/Search/Home" transform="translate(-120.000000, -8.000000)">
            <g id="logo" transform="translate(120.000000, 8.000000)">
                <path d="M33.4437023,17.4333333 C31.0925573,17.4566667 29.389313,15.9133333 29.389313,13.47 C29.6851431,13.3071059 30.0138318,13.2125601 30.351145,13.1933333 C30.664568,13.2050307 30.9690814,13.3005855 31.2328244,13.47 C31.2094466,14.8033333 32.1211832,15.62 33.4103053,15.61 C34.6426527,15.61 35.4141221,14.9433333 35.4141221,14.1066667 C35.411406,13.9088814 35.3646334,13.7141771 35.2771947,13.5366667 C35.186093,13.3887272 35.0613897,13.2642615 34.9131679,13.1733333 C34.8081824,13.1059371 34.6962097,13.0500574 34.5791985,13.0066667 C34.4557543,12.9422549 34.3259174,12.8908659 34.1917939,12.8533333 L33.9312977,12.7766667 L33.5505725,12.6666667 L33.1197519,12.5666667 C32.5343537,12.4318779 31.9577414,12.2615614 31.3931298,12.0566667 C30.2750063,11.6778345 29.5452225,10.6036238 29.6063931,9.42666667 C29.6063931,7.45 31.1192748,6.27333333 33.3368321,6.26664307 C35.5543893,6.26 37.0706107,7.66666667 37.023855,9.96666667 C36.756485,10.1748541 36.4197959,10.2737617 36.0820611,10.2433333 C35.4141221,10.2433333 35.2270992,9.96666667 35.2270992,9.96666667 C35.2270992,8.75666667 34.4589695,8.06 33.3067748,8.06 C32.1545802,8.06 31.4265267,8.64333333 31.4265267,9.36666667 C31.4255199,9.58836794 31.4983569,9.80411746 31.6335878,9.98 C31.795078,10.1610432 31.9962166,10.3024845 32.221374,10.3933333 C32.3559101,10.4570769 32.4955505,10.5094817 32.6388359,10.55 C32.8225191,10.6133333 32.9728053,10.6566667 33.1331107,10.6966667 C33.9064125,10.8762298 34.6690527,11.0987993 35.4174618,11.3633333 C36.3653512,11.6586998 37.0672162,12.4596713 37.2342557,13.4366667 C37.277956,13.6561731 37.2992164,13.8795405 37.2977099,14.1033333 C37.3183803,15.3918015 36.5571327,16.5650765 35.3707061,17.0733333 C34.7596276,17.3230289 34.1038944,17.445532 33.4437023,17.4333333 L33.4437023,17.4333333 Z" id="Path" fill="#F49F1E"></path>
                <path d="M40.523855,13.85 C40.7787713,14.9806425 41.8048327,15.769387 42.9651718,15.7266667 C43.9937977,15.7266667 44.5648855,15.5333333 45.0691794,14.6533333 C45.3148138,14.3886762 45.6630332,14.2428485 46.0243321,14.2533333 C46.37788,14.2377928 46.718972,14.3852768 46.9494275,14.6533333 C46.0744275,16.75 44.8086832,17.48 42.9651718,17.48 C42.1990974,17.4887809 41.4447363,17.2919154 40.7810115,16.91 C40.1300166,16.537609 39.5957555,15.9916692 39.2380725,15.3333333 C38.4923545,13.9398246 38.4923545,12.2668421 39.2380725,10.8733333 C39.5978474,10.2106143 40.1356384,9.66114999 40.7910305,9.28666667 C42.1535932,8.51781743 43.8201663,8.51781743 45.182729,9.28666667 C45.8309617,9.67330303 46.3565569,10.2348728 46.6989504,10.9066667 C47.049319,11.5926258 47.226992,12.353448 47.2166031,13.1233333 C47.2137393,13.3628799 47.198132,13.6021056 47.1698473,13.84 L40.523855,13.85 Z M40.567271,12.1533333 L45.3497137,12.1533333 C45.0091151,11.1234752 44.0450775,10.427824 42.9584924,10.427824 C41.8719072,10.427824 40.9078696,11.1234752 40.567271,12.1533333 L40.567271,12.1533333 Z" id="Shape" fill="#F49F1E" fill-rule="nonzero"></path>
                <path d="M54.8778626,12.5333333 C54.8778626,11.0233333 54.2099237,10.2866667 53.0443702,10.2766667 C51.9255725,10.2766667 50.9637405,11.31 50.9637405,12.6633333 L50.9637405,17.2966667 C50.724241,17.510534 50.4047656,17.6123774 50.0854008,17.5766667 C49.7593443,17.6080493 49.4343539,17.5071338 49.1836832,17.2966667 L49.1836832,5.89333333 C49.4431288,5.68660397 49.7668389,5.57694083 50.0987595,5.58333333 C50.4187949,5.55418686 50.7353828,5.6676486 50.9637405,5.89333333 L50.9637405,9.33333333 C51.6521633,8.81321731 52.4986989,8.54491303 53.3616412,8.57333333 C55.365458,8.55666667 56.6512405,10.06 56.6512405,12.24 L56.6512405,17.3066667 C56.4108863,17.5131728 56.0995262,17.6183555 55.7829198,17.6 C55.4558007,17.6133598 55.1347121,17.5092935 54.8778626,17.3066667 L54.8778626,12.5333333 Z" id="Path" fill="#F49F1E"></path>
                <path d="M65.5314885,16.5066667 C64.8013535,17.1540829 63.8528375,17.5018051 62.8764313,17.48 C62.0989263,17.4871385 61.3331453,17.2905984 60.6555344,16.91 C60.0002506,16.5365192 59.4597662,15.9913008 59.0925573,15.3333333 C58.7148341,14.6495433 58.5182648,13.8808267 58.5214695,13.1 C58.4930847,11.9342418 58.9424941,10.8073948 59.765785,9.98000942 C60.5890759,9.15262401 61.7149604,8.69634252 62.8831107,8.71666667 C63.8811581,8.70786284 64.848004,9.06351554 65.6016221,9.71666667 L65.6016221,8.88 C65.8621364,8.68632473 66.1822877,8.58963691 66.5066794,8.60666667 C66.8340832,8.59035178 67.1571569,8.68685392 67.4217557,8.88 L67.4217557,17.3133333 C67.1166783,17.4349419 66.7917469,17.4993524 66.4632634,17.5033333 C66.1432139,17.5014039 65.8266496,17.4368526 65.5314885,17.3133333 L65.5314885,16.5066667 Z M60.3416031,13.0966667 C60.35081,14.5446955 61.5324214,15.7121495 62.9832324,15.7066649 C64.4340433,15.7011415 65.6067289,14.5247558 65.6049089,13.076699 C65.6030847,11.6286422 64.4274424,10.4552001 62.9766221,10.4533333 C62.2723981,10.4432623 61.5942466,10.71896 61.0974947,11.2172793 C60.6007428,11.7155987 60.3279518,12.3938439 60.3416031,13.0966667 Z" id="Shape" fill="#F49F1E" fill-rule="nonzero"></path>
                <path d="M70.5543893,14.2433333 L70.5543893,10.71 L69.2185115,10.71 C69.0412641,10.4544873 68.9553838,10.1468466 68.9747137,9.83666667 C68.9447918,9.54402269 69.0324785,9.25149093 69.2185115,9.02333333 L70.5543893,9.02333333 L70.5543893,7.11 C70.8096978,6.91521506 71.1296785,6.82464711 71.4494275,6.85666667 C72.1173664,6.85666667 72.2843511,7.11666667 72.2843511,7.11666667 L72.2843511,9.02333333 L74.6655534,9.02333333 C74.7747607,9.29681037 74.839041,9.5860836 74.855916,9.88 C74.8587285,10.1677573 74.7935091,10.4521206 74.6655534,10.71 L72.2843511,10.71 L72.2843511,14.2066667 C72.2843511,15.11 72.778626,15.59 73.6903626,15.59 L74.6655534,15.59 C74.8710161,15.8325262 74.9708188,16.1469661 74.9427481,16.4633333 C74.9776599,16.7682842 74.8762654,17.0731076 74.6655534,17.2966667 L73.5333969,17.2966667 C71.75,17.2966667 70.5543893,16.1033333 70.5543893,14.2433333 Z" id="Path" fill="#F49F1E"></path>
                <path d="M86.9589695,17 L85.8602099,15.7266667 C86.8149389,14.6673959 87.334829,13.2880268 87.3163168,11.8633333 C87.3268998,10.8615561 87.0747567,9.87444039 86.5849237,9 C86.1042667,8.13957801 85.3884756,7.43324261 84.5209924,6.96333333 C82.6948012,5.99029557 80.5027179,5.99029557 78.6765267,6.96333333 C77.8145965,7.43723612 77.1030359,8.14282214 76.6226145,9 C76.1312299,9.87744724 75.8790402,10.8681937 75.8912214,11.8733333 C75.8781197,12.8804857 76.1327966,13.8730989 76.6292939,14.75 C77.1107902,15.6066625 77.8190154,16.3146918 78.6765267,16.7966667 C79.5718564,17.2855015 80.5783026,17.5357727 81.5987595,17.5233333 C82.4726355,17.5294273 83.3374452,17.3463322 84.1335878,16.9866667 L85.3125,18.32 C85.7385936,18.3449586 86.1594494,18.2159842 86.4980916,17.9566667 C86.7970264,17.7303964 86.9685592,17.3743374 86.9589695,17 Z M80.8206107,13.12 L82.490458,15.0766667 C82.2351365,15.1422791 81.9726167,15.1758713 81.7089695,15.1766811 C80.1689096,15.1811825 78.8301083,14.1227926 78.4818603,12.625474 C78.1336123,11.1281554 78.8683513,9.58933463 80.2529097,8.91622833 C81.6374681,8.24312203 83.3043488,8.61438978 84.270837,9.8111495 C85.2373252,11.0079092 85.2468903,12.7125104 84.2938931,13.92 L82.5071565,11.8466667 C82.5071565,11.8466667 82.1397901,11.5133333 81.3482824,12.0766667 C80.5567748,12.64 80.8206107,13.12 80.8206107,13.12 Z" id="Shape" fill="#F49F1E" fill-rule="nonzero"></path>
                <ellipse id="Oval" fill="url(#linearGradient-1)" cx="12.3602099" cy="12.3366667" rx="12.3602099" ry="12.3366667"></ellipse>
                <path d="M19.9947519,17.15 L18.8859733,16.0466667 C20.9462933,12.6301432 20.1494023,8.21851074 17.0233807,5.73525161 C13.8973591,3.25199248 9.41120884,3.46686551 6.53779328,6.23747954 C3.66437772,9.00809357 3.29439615,13.4756157 5.67302642,16.6795269 C8.0516567,19.8834381 12.4415727,20.8305923 15.9336832,18.8933333 L17.0925573,20.05 C17.9001335,20.8180535 19.1742802,20.802346 19.9626038,20.0146186 C20.7509273,19.2268911 20.7651994,17.9551541 19.9947519,17.15 L19.9947519,17.15 Z" id="Path" fill="#FFFFFF"></path>
                <path d="M14.1235687,8.97333333 C14.0880403,8.02425177 13.3096595,7.27160011 12.3581184,7.26621066 C11.4065772,7.26087881 10.6197335,8.00471254 10.5734733,8.95333333 L10.5734733,8.95333333 L10.5734733,8.97333333 L10.5935115,15.6966667 C10.6179228,16.6476953 11.3898582,17.4100645 12.3429066,17.4243822 C13.2959549,17.4386999 14.0905292,16.6998646 14.1436069,15.75 L14.1436069,15.75 L14.1436069,15.75 L14.1235687,8.97333333 Z" id="Path" fill="url(#linearGradient-2)"></path>
                <path d="M8.99045802,10.5733333 C8.03956522,10.6087941 7.28547721,11.3856922 7.28007748,12.3354209 C7.27473544,13.2851496 8.0199887,14.0704945 8.97041985,14.1166667 L8.99045802,14.1166667 L15.7266221,14.0966667 C16.6794658,14.0723018 17.4432898,13.3018367 17.4576349,12.3506037 C17.4719799,11.3993708 16.7317345,10.6063099 15.7800573,10.5533333 L15.7800573,10.5533333 L15.7800573,10.5533333 L8.99045802,10.5733333 Z" id="Path" fill="url(#linearGradient-3)" style="mix-blend-mode: multiply;"></path>
            </g>
        </g>
    </g>
</svg>