<svg xmlns="http://www.w3.org/2000/svg" viewBox="0 0 53.45 96"><defs><style>.cls-1{fill:#adadad;}.cls-1,.cls-2{fill-rule:evenodd;}.cls-2,.cls-3{fill:none;}</style></defs><g id="Layer_2" data-name="Layer 2"><g id="Layer_1-2" data-name="Layer 1"><path class="cls-1" d="M30,68H23.46a1.15,1.15,0,0,1-1.09-1.21V60.74H16.92a1.15,1.15,0,0,1-1.09-1.21V52.24A1.15,1.15,0,0,1,16.92,51h5.45V45a1.15,1.15,0,0,1,1.09-1.21H30A1.16,1.16,0,0,1,31.09,45V51h5.44a1.15,1.15,0,0,1,1.09,1.21v7.29a1.15,1.15,0,0,1-1.09,1.21H31.09v6.07A1.15,1.15,0,0,1,30,68Zm-5.45-2.43H28.9V59.53A1.16,1.16,0,0,1,30,58.31h5.44V53.46H30a1.17,1.17,0,0,1-1.1-1.22V46.18H24.55v6.06a1.16,1.16,0,0,1-1.09,1.22H18v4.85h5.45a1.16,1.16,0,0,1,1.09,1.22Z"/><path class="cls-1" d="M44.51,96H9C4,96,0,91.53,0,86V28a1.31,1.31,0,0,1,.25-.77l9.81-13.37a1.06,1.06,0,0,1,.85-.44H42.55a1.06,1.06,0,0,1,.84.44l9.82,13.37a1.3,1.3,0,0,1,.24.77V86c0,5.49-4,10-8.94,10ZM2.18,28.38V86c0,4.15,3,7.53,6.77,7.53H44.51c3.73,0,6.76-3.38,6.76-7.53V28.38L42,15.8H11.43Z"/><path class="cls-1" d="M52.36,77.77H1.09A1.15,1.15,0,0,1,0,76.56V36.45a1.15,1.15,0,0,1,1.09-1.21H52.36a1.15,1.15,0,0,1,1.09,1.21V76.56a1.15,1.15,0,0,1-1.09,1.21ZM2.18,75.34H51.27V37.67H2.18Z"/><path class="cls-1" d="M49.09,15.8H4.36a1.16,1.16,0,0,1-1.09-1.22v-6C3.27,3.83,6.72,0,11,0H42.51c4.23,0,7.67,3.83,7.67,8.55v6a1.16,1.16,0,0,1-1.09,1.22ZM5.46,13.37H48V8.55c0-3.37-2.46-6.12-5.49-6.12H11c-3,0-5.5,2.75-5.5,6.12v4.82Z"/><path class="cls-1" d="M44.73,77.77a1.15,1.15,0,0,1-1.09-1.21V36.45a1.1,1.1,0,1,1,2.18,0V76.56A1.15,1.15,0,0,1,44.73,77.77Z"/><path class="cls-1" d="M8.73,77.77a1.15,1.15,0,0,1-1.09-1.21V36.45a1.15,1.15,0,0,1,1.09-1.21,1.15,1.15,0,0,1,1.09,1.21V76.56A1.15,1.15,0,0,1,8.73,77.77Z"/><path class="cls-2" d="M2.18,77.77V86c0,4.15,3,7.53,6.77,7.53H44.51c3.73,0,6.76-3.38,6.76-7.53V77.77H2.18Z"/><path class="cls-2" d="M24.55,59.53v6.06H28.9V59.53A1.16,1.16,0,0,1,30,58.31h5.44V53.46H30a1.17,1.17,0,0,1-1.1-1.22V46.18H24.55v6.06a1.16,1.16,0,0,1-1.09,1.22H18v4.85h5.45A1.16,1.16,0,0,1,24.55,59.53Z"/><path class="cls-2" d="M31.09,51h5.44a1.15,1.15,0,0,1,1.09,1.21v7.29a1.15,1.15,0,0,1-1.09,1.21H31.09v6.07A1.15,1.15,0,0,1,30,68H23.46a1.15,1.15,0,0,1-1.09-1.21V60.74H16.92a1.15,1.15,0,0,1-1.09-1.21V52.24A1.15,1.15,0,0,1,16.92,51h5.45V45a1.15,1.15,0,0,1,1.09-1.21H30A1.16,1.16,0,0,1,31.09,45V51ZM9.82,75.34H43.64V37.67H9.82Z"/><rect class="cls-3" x="2.18" y="37.67" width="5.45" height="37.67"/><polygon class="cls-2" points="8.73 35.24 44.73 35.24 51.27 35.24 51.27 28.38 42.03 15.8 11.43 15.8 2.18 28.38 2.18 35.24 8.73 35.24"/><path class="cls-2" d="M10.91,13.37H48V8.55c0-3.37-2.46-6.12-5.49-6.12H11c-3,0-5.5,2.75-5.5,6.12v4.82h5.45Z"/><rect class="cls-3" x="45.82" y="37.67" width="5.45" height="37.67"/></g></g></svg>