<svg width="147" height="124" viewBox="0 0 147 124" fill="none" xmlns="http://www.w3.org/2000/svg">
<rect width="103" height="65" rx="5" transform="matrix(-1 0 0 1 147 0)" fill="#ADADAD"/>
<path d="M114.366 63.2309L137.118 63.1977L137.213 85.902L114.366 63.2309Z" fill="#ADADAD"/>
<path d="M144 7C144 4.79086 142.209 3 140 3H51C48.7909 3 47 4.79086 47 7V57.8811C47 60.0902 48.7909 61.8811 51 61.8811H140C142.209 61.8811 144 60.0902 144 57.8811V7Z" fill="white"/>
<path d="M115.888 61.0083L134.914 60.9858L135 81L115.888 61.0083Z" fill="white"/>
<ellipse cx="98" cy="31.3103" rx="20" ry="19.3103" fill="white"/>
<path d="M98 50.2414C108.776 50.2414 117.571 41.7984 117.571 31.3103C117.571 20.8222 108.776 12.3793 98 12.3793C87.2244 12.3793 78.4286 20.8222 78.4286 31.3103C78.4286 41.7984 87.2244 50.2414 98 50.2414Z" stroke="#ADADAD" stroke-width="2"/>
<path d="M90.8571 27.1724C90.8571 25.8084 91.276 24.475 92.0609 23.3409C92.8458 22.2068 93.9613 21.3228 95.2665 20.8008C96.5717 20.2788 98.0079 20.1423 99.3935 20.4084C100.779 20.6745 102.052 21.3313 103.051 22.2958C104.05 23.2603 104.73 24.4892 105.006 25.827C105.281 27.1648 105.14 28.5514 104.599 29.8116C104.058 31.0718 103.143 32.1489 101.968 32.9067C100.794 33.6645 99.4127 34.069 98 34.069L98 40.2758" stroke="#ADADAD" stroke-width="4" stroke-linecap="round"/>
<path d="M90.8571 27.1724C90.8571 25.8084 91.276 24.475 92.0609 23.3409C92.8458 22.2068 93.9613 21.3228 95.2665 20.8008C96.5717 20.2788 98.0079 20.1423 99.3935 20.4084C100.779 20.6745 102.052 21.3313 103.051 22.2958C104.05 23.2603 104.73 24.4892 105.006 25.827C105.281 27.1648 105.14 28.5514 104.599 29.8116C104.058 31.0718 103.143 32.1489 101.968 32.9067C100.794 33.6645 99.4127 34.069 98 34.069L98 40.2758" stroke="white" stroke-width="2" stroke-linecap="round"/>
<path d="M101.786 47.862C101.786 49.8547 100.107 51.4999 98 51.4999C95.8925 51.4999 94.2143 49.8547 94.2143 47.862C94.2143 45.8692 95.8925 44.224 98 44.224C100.107 44.224 101.786 45.8692 101.786 47.862Z" stroke="#ADADAD"/>
<ellipse cx="98" cy="47.862" rx="2.85714" ry="2.75862" stroke="#F99F22"/>
<ellipse cx="98" cy="47.862" rx="2.85714" ry="2.75862" fill="#F99F22"/>
<rect y="37" width="103" height="65.2456" rx="5" fill="#ADADAD"/>
<path d="M32.0214 101.216L9.27196 101.181L9.17864 123.9L32.0214 101.216Z" fill="#ADADAD"/>
<path d="M3 44C3 41.7909 4.79086 40 7 40H96C98.2091 40 100 41.7909 100 44V94.8811C100 97.0902 98.2091 98.8811 96 98.8811H7C4.79086 98.8811 3 97.0902 3 94.8811V44Z" fill="white"/>
<path d="M31.112 98.0083L12.0862 97.9858L12 118L31.112 98.0083Z" fill="white"/>
<path d="M3 45C3 42.7909 4.79086 41 7 41H96C98.2091 41 100 42.7909 100 45V95.067C100 97.2761 98.2091 99.067 96 99.067H7C4.79086 99.067 3 97.2761 3 95.067V45Z" fill="white"/>
<path d="M31.112 98.2062L12.0862 98.1841L12 117.922L31.112 98.2062Z" fill="white"/>
<circle cx="51" cy="69" r="20" fill="white"/>
<circle cx="51" cy="69" r="19.5714" stroke="#ADADAD" stroke-width="2"/>
<rect x="36.7143" y="74.7143" width="11.4286" height="28.5714" transform="rotate(-90 36.7143 74.7143)" fill="#ADADAD"/>
<rect x="45.2857" y="54.7143" width="11.4286" height="28.5714" fill="#ADADAD"/>
<rect x="48.1429" y="57.5714" width="5.71429" height="22.8571" fill="white"/>
<rect x="39.5714" y="71.8571" width="5.71429" height="22.8571" transform="rotate(-90 39.5714 71.8571)" fill="white"/>
</svg>
