<svg xmlns="http://www.w3.org/2000/svg" viewBox="0 0 96 76.8"><defs><style>.cls-1{fill:#67d2e0;}.cls-1,.cls-2{fill-rule:evenodd;}.cls-2{fill:none;}</style></defs><g id="Layer_2" data-name="Layer 2"><g id="Layer_1-2" data-name="Layer 1"><path class="cls-1" d="M51.35,59.71H44.66a1.1,1.1,0,0,1-1.12-1.07V53.31H38a1.09,1.09,0,0,1-1.12-1.06V45.86A1.1,1.1,0,0,1,38,44.79h5.57V39.46a1.09,1.09,0,0,1,1.12-1.06h6.69a1.08,1.08,0,0,1,1.11,1.06v5.33H58a1.09,1.09,0,0,1,1.12,1.06v6.4A1.09,1.09,0,0,1,58,53.31H52.46v5.33a1.09,1.09,0,0,1-1.11,1.07Zm-5.58-2.14h4.46V52.25a1.09,1.09,0,0,1,1.11-1.07h5.58V46.92H51.35a1.09,1.09,0,0,1-1.12-1.06V40.53H45.77v5.33a1.08,1.08,0,0,1-1.11,1.06H39.08v4.26h5.58a1.09,1.09,0,0,1,1.11,1.07Z"/><path class="cls-1" d="M48,68.27c-10.77,0-19.53-8.38-19.53-18.67S37.23,30.93,48,30.93,67.53,39.31,67.53,49.6,58.77,68.27,48,68.27Zm0-35.2c-9.54,0-17.3,7.41-17.3,16.53S38.46,66.13,48,66.13,65.3,58.72,65.3,49.6,57.54,33.07,48,33.07Z"/><path class="cls-1" d="M94.88,23.47H1.12a1.07,1.07,0,1,1,0-2.14H94.88a1.07,1.07,0,1,1,0,2.14Z"/><path class="cls-1" d="M88.41,76.8H7.59A7.44,7.44,0,0,1,0,69.55v-57A7.44,7.44,0,0,1,7.59,5.33H88.41A7.44,7.44,0,0,1,96,12.59v57a7.44,7.44,0,0,1-7.59,7.25ZM7.59,7.47a5.25,5.25,0,0,0-5.36,5.12v57a5.26,5.26,0,0,0,5.36,5.12H88.41a5.26,5.26,0,0,0,5.36-5.12v-57a5.25,5.25,0,0,0-5.36-5.12Z"/><path class="cls-1" d="M15.63,18.13a4.37,4.37,0,0,1-4.46-4.26A4.37,4.37,0,0,1,15.63,9.6a4.37,4.37,0,0,1,4.46,4.27,4.37,4.37,0,0,1-4.46,4.26Zm0-6.4a2.14,2.14,0,1,0,2.23,2.14A2.19,2.19,0,0,0,15.63,11.73Z"/><path class="cls-1" d="M15.63,11.73a1.09,1.09,0,0,1-1.12-1.06V1.07a1.12,1.12,0,0,1,2.24,0v9.6A1.09,1.09,0,0,1,15.63,11.73Z"/><path class="cls-1" d="M29,18.13a4.37,4.37,0,0,1-4.46-4.26,4.47,4.47,0,0,1,8.93,0A4.37,4.37,0,0,1,29,18.13Zm0-6.4a2.14,2.14,0,1,0,2.24,2.14A2.19,2.19,0,0,0,29,11.73Z"/><path class="cls-1" d="M29,11.73a1.08,1.08,0,0,1-1.11-1.06V1.07a1.12,1.12,0,0,1,2.23,0v9.6A1.09,1.09,0,0,1,29,11.73Z"/><path class="cls-1" d="M42.42,18.13A4.38,4.38,0,0,1,38,13.87a4.47,4.47,0,0,1,8.93,0,4.36,4.36,0,0,1-4.46,4.26Zm0-6.4a2.14,2.14,0,1,0,2.23,2.14A2.19,2.19,0,0,0,42.42,11.73Z"/><path class="cls-1" d="M42.42,11.73a1.09,1.09,0,0,1-1.12-1.06V1.07a1.12,1.12,0,0,1,2.24,0v9.6A1.09,1.09,0,0,1,42.42,11.73Z"/><path class="cls-1" d="M55.81,18.13a4.37,4.37,0,0,1-4.46-4.26,4.47,4.47,0,0,1,8.93,0,4.37,4.37,0,0,1-4.47,4.26Zm0-6.4a2.14,2.14,0,1,0,2.24,2.14A2.19,2.19,0,0,0,55.81,11.73Z"/><path class="cls-1" d="M55.81,11.73a1.08,1.08,0,0,1-1.11-1.06V1.07a1.12,1.12,0,0,1,2.23,0v9.6A1.09,1.09,0,0,1,55.81,11.73Z"/><path class="cls-1" d="M69.21,18.13a4.38,4.38,0,0,1-4.47-4.26,4.47,4.47,0,0,1,8.94,0,4.38,4.38,0,0,1-4.47,4.26Zm0-6.4a2.14,2.14,0,1,0,2.23,2.14A2.19,2.19,0,0,0,69.21,11.73Z"/><path class="cls-1" d="M69.21,11.73a1.09,1.09,0,0,1-1.12-1.06V1.07a1.12,1.12,0,0,1,2.24,0v9.6A1.09,1.09,0,0,1,69.21,11.73Z"/><path class="cls-1" d="M82.61,18.13a4.37,4.37,0,0,1-4.47-4.26,4.47,4.47,0,0,1,8.93,0,4.37,4.37,0,0,1-4.46,4.26Zm0-6.4a2.14,2.14,0,1,0,2.23,2.14A2.19,2.19,0,0,0,82.61,11.73Z"/><path class="cls-1" d="M82.61,11.73a1.09,1.09,0,0,1-1.12-1.06V1.07a1.12,1.12,0,0,1,2.23,0v9.6A1.08,1.08,0,0,1,82.61,11.73Z"/><path class="cls-1" d="M94.88,46.93H78.14a1.07,1.07,0,1,1,0-2.13H94.88a1.07,1.07,0,1,1,0,2.13Z"/><path class="cls-1" d="M94.88,52.27H83.72a1.07,1.07,0,1,1,0-2.14H94.88a1.07,1.07,0,1,1,0,2.14Z"/><path class="cls-1" d="M23.44,37.33H1.12a1.07,1.07,0,1,1,0-2.13H23.44a1.07,1.07,0,1,1,0,2.13Z"/><path class="cls-1" d="M11.16,43.73h-10a1.07,1.07,0,1,1,0-2.13h10a1.07,1.07,0,1,1,0,2.13Z"/><path class="cls-2" d="M14.51,7.47H7.59a5.25,5.25,0,0,0-5.36,5.12v8.74H93.77V12.59a5.25,5.25,0,0,0-5.36-5.12H83.72V9.73a4.32,4.32,0,0,1,3.35,4.14,4.47,4.47,0,0,1-8.93,0,4.33,4.33,0,0,1,3.35-4.14V7.47H70.33V9.73a4.33,4.33,0,0,1,3.35,4.14,4.48,4.48,0,0,1-8.94,0,4.33,4.33,0,0,1,3.35-4.14V7.47H56.93V9.73a4.33,4.33,0,0,1,3.35,4.14,4.47,4.47,0,0,1-8.93,0A4.32,4.32,0,0,1,54.7,9.73V7.47H43.54V9.73a4.32,4.32,0,0,1,3.34,4.14,4.47,4.47,0,0,1-8.93,0A4.33,4.33,0,0,1,41.3,9.73V7.47H30.14V9.73a4.33,4.33,0,0,1,3.35,4.14,4.47,4.47,0,0,1-8.93,0,4.32,4.32,0,0,1,3.35-4.14V7.47H16.75V9.73a4.32,4.32,0,0,1,3.34,4.14,4.37,4.37,0,0,1-4.46,4.26,4.37,4.37,0,0,1-4.46-4.26,4.32,4.32,0,0,1,3.34-4.14Z"/><path class="cls-2" d="M93.77,23.47H2.23V35.2H23.44a1.07,1.07,0,1,1,0,2.13H2.23V41.6h8.93a1.07,1.07,0,1,1,0,2.13H2.23V69.55a5.26,5.26,0,0,0,5.36,5.12H88.41a5.26,5.26,0,0,0,5.36-5.12V52.27h-10a1.07,1.07,0,1,1,0-2.14h10v-3.2H78.14a1.07,1.07,0,1,1,0-2.13H93.77V23.47ZM48,30.93c10.77,0,19.53,8.38,19.53,18.67S58.77,68.27,48,68.27,28.47,59.89,28.47,49.6,37.23,30.93,48,30.93Z"/><path class="cls-2" d="M65.3,49.6c0-9.12-7.76-16.53-17.3-16.53S30.7,40.48,30.7,49.6,38.46,66.13,48,66.13,65.3,58.72,65.3,49.6ZM52.46,44.79H58a1.09,1.09,0,0,1,1.12,1.06v6.4A1.09,1.09,0,0,1,58,53.31H52.46v5.33a1.09,1.09,0,0,1-1.11,1.07H44.66a1.1,1.1,0,0,1-1.12-1.07V53.31H38a1.09,1.09,0,0,1-1.12-1.06V45.86A1.1,1.1,0,0,1,38,44.79h5.57V39.46a1.09,1.09,0,0,1,1.12-1.06h6.69a1.08,1.08,0,0,1,1.11,1.06Z"/><path class="cls-2" d="M51.35,46.92a1.09,1.09,0,0,1-1.12-1.06V40.53H45.77v5.33a1.08,1.08,0,0,1-1.11,1.06H39.08v4.26h5.58a1.09,1.09,0,0,1,1.11,1.07v5.32h4.46V52.25a1.09,1.09,0,0,1,1.11-1.07h5.58V46.92Z"/><path class="cls-2" d="M15.63,16a2.14,2.14,0,1,0-2.23-2.13A2.19,2.19,0,0,0,15.63,16Z"/><path class="cls-2" d="M26.79,13.87A2.24,2.24,0,1,0,29,11.73,2.19,2.19,0,0,0,26.79,13.87Z"/><path class="cls-2" d="M40.19,13.87a2.23,2.23,0,1,0,2.23-2.14A2.19,2.19,0,0,0,40.19,13.87Z"/><path class="cls-2" d="M53.58,13.87a2.24,2.24,0,1,0,2.23-2.14A2.19,2.19,0,0,0,53.58,13.87Z"/><path class="cls-2" d="M67,13.87a2.23,2.23,0,1,0,2.23-2.14A2.19,2.19,0,0,0,67,13.87Z"/><path class="cls-2" d="M80.37,13.87a2.24,2.24,0,1,0,2.24-2.14A2.19,2.19,0,0,0,80.37,13.87Z"/></g></g></svg>