<svg width="165" height="131" viewBox="0 0 165 131" fill="none" xmlns="http://www.w3.org/2000/svg">
<rect x="29" y="63" width="107" height="68" fill="#ADADAD"/>
<path d="M79.5002 3.40087C81.0926 1.59553 83.9074 1.59554 85.4998 3.40087L148.085 74.354C150.363 76.9369 148.529 81 145.085 81H19.9149C16.4707 81 14.6368 76.9369 16.9151 74.354L79.5002 3.40087Z" fill="#ADADAD"/>
<rect x="35" y="64" width="95" height="61" fill="white"/>
<path d="M79.5375 13.2653C81.125 11.5156 83.875 11.5156 85.4624 13.2653L138.353 71.5623C140.685 74.1327 138.861 78.25 135.391 78.25H29.6092C26.1385 78.25 24.3147 74.1327 26.6467 71.5623L79.5375 13.2653Z" fill="white"/>
<rect x="67.7143" y="54.7143" width="11.4286" height="28.5714" transform="rotate(-90 67.7143 54.7143)" fill="#ADADAD"/>
<rect x="76.2857" y="34.7143" width="11.4286" height="28.5714" fill="#ADADAD"/>
<rect x="79.1429" y="37.5714" width="5.71429" height="22.8571" fill="white"/>
<rect x="70.5714" y="51.8571" width="5.71429" height="22.8571" transform="rotate(-90 70.5714 51.8571)" fill="white"/>
</svg>
