<svg xmlns="http://www.w3.org/2000/svg" xmlns:xlink="http://www.w3.org/1999/xlink" width="36" height="36" viewBox="0 0 36 36">
    <defs>
        <path id="u6u7qtuiwa" d="M0 0.147L29.033 0.147 29.033 25.897 0 25.897z"/>
    </defs>
    <g fill="none" fill-rule="evenodd">
        <g transform="translate(3.462 4.846) translate(0 .307)">
            <mask id="nw7v37mspb" fill="#fff">
                <use xlink:href="#u6u7qtuiwa"/>
            </mask>
            <path fill="#2B8E8E" d="M7.93 1.283c-2.562 0-4.14 1.33-5.015 2.45-1.125 1.44-1.773 3.41-1.78 5.405-.013 4.655 3.588 8.624 6.61 11.132 2.935 2.436 5.883 4.003 6.71 4.421.833-.414 3.795-1.965 6.752-4.385 3.045-2.491 6.676-6.434 6.69-11.07.012-3.82-2.355-7.889-6.763-7.905h-.028c-4.323 0-5.985 3.669-6.054 3.825-.09.207-.295.34-.52.34h-.003c-.226-.002-.43-.137-.52-.345-.067-.157-1.7-3.852-6.052-3.868H7.93zm6.52 24.614c-.06 0-.12-.01-.179-.03-.053-.018-.103-.043-.147-.074-.322-.134-.851-.421-1.801-.973C8.61 22.667-.023 16.827 0 9.135c.007-2.242.743-4.466 2.02-6.101C3.502 1.137 5.552.144 7.96.147c3.686.013 5.71 2.295 6.577 3.626.879-1.32 2.914-3.578 6.569-3.578h.032c5.146.02 7.908 4.674 7.895 9.045-.027 8.935-11.742 15.296-14.149 16.46-.051.059-.115.107-.188.141l-.052.022c-.042.019-.086.03-.142.031l-.051.003z" mask="url(#nw7v37mspb)"/>
        </g>
        <path fill="#F9A01F" d="M15.987 17.248l-.033-.001c-.22-.013-.413-.152-.495-.358l-2.241-5.657-1.88 3.01c-.105.165-.287.266-.482.266H6.97c-.313 0-.568-.254-.568-.568 0-.313.255-.568.568-.568h3.57l2.309-3.695c.114-.182.32-.288.533-.265.213.02.398.158.477.357l2.204 5.564 1.154-2.156c.099-.184.291-.3.5-.3h4.344c.314 0 .568.254.568.568 0 .314-.254.568-.568.568H18.06l-1.571 2.935c-.1.185-.293.3-.5.3" transform="translate(3.462 4.846)"/>
    </g>
</svg>
