<svg xmlns="http://www.w3.org/2000/svg" xmlns:xlink="http://www.w3.org/1999/xlink" width="36" height="36" viewBox="0 0 36 36">
    <defs>
        <path id="xdkfxq4a7a" d="M0.069 0.176L11.207 0.176 11.207 10.337 0.069 10.337z"/>
    </defs>
    <g fill="none" fill-rule="evenodd">
        <path fill="#FFF" d="M13.718 28.298H2.85c-.917 0-1.672-.722-1.711-1.638l-.62-14.196c-.074-1.711 1.293-3.138 3.005-3.138h9.52c1.713 0 3.079 1.427 3.005 3.138l-.62 14.196c-.04.916-.794 1.638-1.71 1.638M12.038 4.27c0 2.074-1.68 3.755-3.754 3.755-2.073 0-3.754-1.681-3.754-3.754C4.53 2.197 6.21.517 8.284.517s3.754 1.68 3.754 3.754" transform="translate(3.115 3.462)"/>
        <path fill="#2B8E8E" d="M3.524 9.842c-.686 0-1.325.273-1.799.769-.474.495-.718 1.145-.689 1.83l.619 14.196c.028.641.553 1.144 1.195 1.144h10.868c.643 0 1.168-.502 1.195-1.144l.619-14.196c.03-.685-.215-1.335-.689-1.83-.474-.496-1.113-.769-1.799-.769h-9.52zm10.194 18.973H2.85c-1.197 0-2.175-.937-2.228-2.133L.004 12.486c-.043-.97.304-1.89.975-2.59.67-.701 1.575-1.087 2.545-1.087h9.52c.97 0 1.875.386 2.546 1.087.67.7 1.017 1.62.975 2.59l-.619 14.196c-.052 1.196-1.03 2.133-2.228 2.133zM8.284 1.034c-1.785 0-3.237 1.452-3.237 3.237 0 1.785 1.452 3.237 3.237 3.237 1.785 0 3.238-1.452 3.238-3.237 0-1.785-1.453-3.237-3.238-3.237m0 7.508c-2.355 0-4.27-1.916-4.27-4.27C4.013 1.915 5.928 0 8.283 0c2.355 0 4.271 1.916 4.271 4.271s-1.916 4.27-4.27 4.27" transform="translate(3.115 3.462)"/>
        <path fill="#FFF" d="M25.188 4.27c0 2.074-1.68 3.755-3.754 3.755-2.073 0-3.754-1.681-3.754-3.754 0-2.074 1.68-3.754 3.754-3.754 2.073 0 3.754 1.68 3.754 3.754" transform="translate(3.115 3.462)"/>
        <path fill="#2B8E8E" d="M21.434 1.034c-1.785 0-3.237 1.452-3.237 3.237 0 1.785 1.452 3.237 3.237 3.237 1.785 0 3.237-1.452 3.237-3.237 0-1.785-1.452-3.237-3.237-3.237m0 7.508c-2.355 0-4.271-1.916-4.271-4.27C17.163 1.915 19.079 0 21.434 0s4.271 1.916 4.271 4.271-1.916 4.27-4.271 4.27M8.327 12.35c-1.52 0-2.755-1.237-2.755-2.756 0-.286.232-.517.517-.517.285 0 .517.231.517.517 0 .95.772 1.722 1.721 1.722.95 0 1.722-.773 1.722-1.722 0-.286.232-.517.517-.517.286 0 .517.231.517.517 0 1.52-1.236 2.755-2.756 2.755" transform="translate(3.115 3.462)"/>
        <path fill="#FFF" d="M27.487 28.298H15.76c-1.064 0-1.87-.96-1.688-2.007l2.524-14.475c.25-1.44 1.5-2.49 2.962-2.49h4.13c1.462 0 2.712 1.05 2.963 2.49l2.524 14.475c.182 1.048-.624 2.007-1.688 2.007" transform="translate(3.115 3.462)"/>
        <path fill="#2B8E8E" d="M19.558 9.842c-1.213 0-2.245.868-2.453 2.063L14.58 26.38c-.06.349.035.704.263.975.228.27.562.426.916.426h11.727c.354 0 .688-.155.916-.426.227-.271.323-.626.262-.975l-2.523-14.475c-.209-1.195-1.24-2.063-2.454-2.063h-4.13zm7.929 18.973H15.76c-.66 0-1.282-.29-1.707-.795-.425-.505-.603-1.168-.49-1.818l2.524-14.475c.294-1.69 1.755-2.918 3.471-2.918h4.13c1.717 0 3.177 1.227 3.472 2.918l2.524 14.475c.113.65-.065 1.313-.49 1.818-.425.505-1.047.795-1.707.795z" transform="translate(3.115 3.462)"/>
        <path fill="#FFEDBB" d="M18.37 14.154c0 2.007-1.628 3.635-3.636 3.635S11.1 16.161 11.1 14.154c0-2.008 1.627-3.636 3.635-3.636s3.636 1.628 3.636 3.636M18.416 28.298h-7.364c-.756 0-1.37-.613-1.37-1.37v-6.386c0-.757.614-1.371 1.37-1.371h7.364c.757 0 1.37.614 1.37 1.37v6.387c0 .757-.613 1.37-1.37 1.37" transform="translate(3.115 3.462)"/>
        <path fill="#F9A01F" d="M14.734 11.035c-1.72 0-3.119 1.399-3.119 3.119 0 1.72 1.4 3.118 3.12 3.118 1.719 0 3.118-1.399 3.118-3.118 0-1.72-1.4-3.12-3.119-3.12m0 7.272c-2.29 0-4.152-1.863-4.152-4.152 0-2.29 1.862-4.153 4.152-4.153s4.153 1.863 4.153 4.153c0 2.29-1.863 4.152-4.153 4.152" transform="translate(3.115 3.462)"/>
        <g transform="translate(3.115 3.462) translate(9.096 18.478)">
            <mask id="x1o76fgy4b" fill="#fff">
                <use xlink:href="#xdkfxq4a7a"/>
            </mask>
            <path fill="#F9A01F" d="M1.956 1.21c-.47 0-.853.382-.853.853v6.386c0 .47.383.854.853.854H9.32c.47 0 .853-.383.853-.854V2.063c0-.47-.383-.854-.853-.854H1.956zm7.364 9.127H1.956C.916 10.337.07 9.49.07 8.449V2.063C.07 1.023.916.176 1.956.176H9.32c1.04 0 1.887.847 1.887 1.887v6.386c0 1.04-.847 1.888-1.887 1.888z" mask="url(#x1o76fgy4b)"/>
        </g>
        <path fill="#2B8E8E" d="M21.623 12.35c-1.52 0-2.755-1.237-2.755-2.756 0-.286.231-.517.516-.517.286 0 .517.231.517.517 0 .95.773 1.722 1.722 1.722.95 0 1.722-.773 1.722-1.722 0-.286.232-.517.517-.517.286 0 .517.231.517.517 0 1.52-1.236 2.755-2.756 2.755" transform="translate(3.115 3.462)"/>
    </g>
</svg>
