<svg xmlns="http://www.w3.org/2000/svg" xmlns:xlink="http://www.w3.org/1999/xlink" width="345" height="304" viewBox="0 0 345 304">
    <defs>
        <path id="16kcbyfu6a" d="M0 0.185L331.351 0.185 331.351 238.814 0 238.814z"/>
        <path id="7afiw03h1c" d="M0 258.169L331.351 258.169 331.351 0 0 0z"/>
    </defs>
    <g fill="none" fill-rule="evenodd">
        <g>
            <g>
                <g>
                    <g>
                        <g>
                            <g transform="translate(-673 -301) translate(466 231) translate(192 70) translate(14) translate(.422) translate(7.89 37.872)">
                                <g transform="translate(0 16.076)">
                                    <mask id="c5rq7f73cb" fill="#fff">
                                        <use xlink:href="#16kcbyfu6a"/>
                                    </mask>
                                    <path fill="#DAF8FD" d="M13.007 198.81c-13.616-18.103-18.033-44.474-5.996-63.67 15.19-24.224 48.775-28.769 69.86-48.05 11.312-10.346 18.411-24.381 27.006-37.087 11.132-16.459 25.358-31.212 42.937-40.417 17.58-9.204 38.762-12.424 57.582-6.156s34.533 22.84 37.306 42.533c1.043 7.416.543 15.663 5.202 21.516 2.49 3.127 6.131 5.082 9.742 6.781 15.336 7.218 32.22 11.487 46.044 21.306 18.598 13.21 29.76 36.304 28.576 59.13-1.259 24.273-15.814 46.665-35.49 60.854-19.678 14.19-43.966 20.853-68.129 22.745-11.09.868-22.322.782-33.252-1.307-12.528-2.396-24.404-7.367-36.675-10.855-26.245-7.461-55.272-7.639-80.426 3.777-12.898 5.854-21.53.915-33.722-5.724-11.703-6.373-22.5-14.656-30.565-25.376" mask="url(#c5rq7f73cb)"/>
                                </g>
                                <path fill="#A2D6D9" d="M277.87 249.88v-79.478c0-5.107-6.465-9.247-14.442-9.247h-8.948c-7.977 0-14.444 4.14-14.444 9.247v79.478h37.835z"/>
                                <mask id="hoo296yn5d" fill="#fff">
                                    <use xlink:href="#7afiw03h1c"/>
                                </mask>
                                <path fill="#FFF" d="M267.841 171.175L272.772 171.175 272.772 168.018 267.841 168.018zM259.77 181.759L264.7 181.759 264.7 178.602 259.77 178.602zM268.787 217.798L273.717 217.798 273.717 214.642 268.787 214.642z" mask="url(#hoo296yn5d)"/>
                                <path fill="#A7CBCD" d="M107.816 249.88v-79.478c0-5.107-6.467-9.247-14.444-9.247h-8.947c-7.978 0-14.445 4.14-14.445 9.247v79.478h37.836z" mask="url(#hoo296yn5d)"/>
                                <path fill="#FFF" d="M80.628 192.146L85.558 192.146 85.558 188.989 80.628 188.989zM86.433 211.282L91.363 211.282 91.363 208.126 86.433 208.126z" mask="url(#hoo296yn5d)"/>
                                <path fill="#A2D6D9" d="M84.543 249.88v-91.204c0-5.107-6.466-9.248-14.444-9.248h-8.948c-7.977 0-14.443 4.141-14.443 9.248v91.204h37.835z" mask="url(#hoo296yn5d)"/>
                                <path fill="#A2D6D9" d="M68.95 199.121L73.881 199.121 73.881 195.964 68.95 195.964zM60.878 209.704L65.808 209.704 65.808 206.548 60.878 206.548z" mask="url(#hoo296yn5d)"/>
                                <path fill="#EEF9FA" d="M246.298 109.354h-24.445c-2.503 0-4.833.59-6.815 1.598v-8.15c0-5.883-5.813-10.653-12.983-10.653H184.68v145.845c0 6.565 6.486 11.886 14.489 11.886h43.158c9.364 0 16.955-7.431 16.955-16.6V120.007c0-5.883-5.813-10.652-12.984-10.652" mask="url(#hoo296yn5d)"/>
                                <path fill="#FFF" d="M236.862 154.309L243.431 154.309 243.431 148.919 236.862 148.919z" mask="url(#hoo296yn5d)"/>
                                <path fill="#EEF9FA" d="M236.862 186.757L243.431 186.757 243.431 181.368 236.862 181.368z" mask="url(#hoo296yn5d)"/>
                                <path fill="#FFF" d="M223.525 216.22L230.094 216.22 230.094 210.831 223.525 210.831zM199.251 106.931L205.819 106.931 205.819 101.542 199.251 101.542z" mask="url(#hoo296yn5d)"/>
                                <path fill="#EEF9FA" d="M192.681 134.026L199.251 134.026 199.251 128.637 192.681 128.637z" mask="url(#hoo296yn5d)"/>
                                <path fill="#FFF" d="M232.483 124.809L239.051 124.809 239.051 119.419 232.483 119.419zM236.862 144.597L243.431 144.597 243.431 139.207 236.862 139.207z" mask="url(#hoo296yn5d)"/>
                                <path fill="#C7EDED" d="M142.387 99.111h-20.222c-5.931 0-10.74 3.946-10.74 8.813v7.128h-10.112c-5.931 0-10.74 3.945-10.74 8.812v117.204c0 4.867 4.809 8.812 10.74 8.812h51.815V107.924c0-4.867-4.81-8.813-10.74-8.813" mask="url(#hoo296yn5d)"/>
                                <path fill="#FFF" d="M97.234 128.977L102.668 128.977 102.668 124.519 97.234 124.519zM132.662 114.824L138.096 114.824 138.096 110.366 132.662 110.366zM132.662 123.579L138.096 123.579 138.096 119.121 132.662 119.121z" mask="url(#hoo296yn5d)"/>
                                <path fill="#B0DA5F" d="M95.555 250.95c-9.449-2.74-17.378-8.832-24.36-15.494-10.459-9.98-19.426-21.695-24.517-35.161-1.486-3.931-2.645-8.052-2.65-12.292-.004-3.77 1.356-8.115 4.937-9.687 2.98-1.31 6.391-.211 9.183 1.255 11.066 5.806 18.065 16.803 23.422 27.888 5.358 11.085 9.656 22.878 17.401 32.477 2.577 3.193 5.545 6.16 7.29 9.865-1.993 2.059-5.112 2.754-7.935 2.461-2.824-.291-5.436-1.436-7.995-2.565" mask="url(#hoo296yn5d)"/>
                                <path fill="#E1FBA3" d="M97.58 249.531c.269.011.537-.104.713-.333.289-.375.22-.912-.156-1.202-16.816-12.95-36.122-41.601-41.51-57.608-.15-.447-.636-.69-1.085-.538-.448.151-.689.637-.539 1.085 5.465 16.235 25.04 45.29 42.09 58.42.146.112.317.17.488.176" mask="url(#hoo296yn5d)"/>
                                <path fill="#C3F271" d="M105.073 256.741c2.657-.545.78-7.837-2.154-8.94-8.821-3.316-15.14-9.697-22.221-15.113-7.081-5.415-15.563-10.044-26.426-9.231-2.74.205-5.936.94-8.229 3.176-2.757 2.687-2.977 6.34-2.144 8.983.938 2.973 2.667 5.54 5.001 7.459 20.142 16.56 42.356 16.5 56.173 13.666" mask="url(#hoo296yn5d)"/>
                                <path fill="#F7FFEE" d="M99.654 251.527c.43.043.835-.233.928-.653.102-.45-.192-.894-.655-.99-16.93-3.558-32.955-9.666-47.63-18.154-.408-.237-.934-.106-1.175.29-.243.395-.11.906.296 1.14 14.835 8.582 31.033 14.756 48.145 18.351.031.007.062.012.091.016" mask="url(#hoo296yn5d)"/>
                                <path fill="#C3F271" d="M104.635 255.856c1.895 1.537 6.534-1.126 5.331-4.199-3.618-9.242-6.1-23.722-7.568-33.365-1.47-9.643-4.2-19.691-11.208-27.116-1.768-1.873-4.089-3.656-6.644-3.554-3.071.12-5.11 2.906-5.982 5.662-.983 3.101-1.272 6.46-.856 9.748 3.577 28.361 17.074 44.837 26.927 52.824" mask="url(#hoo296yn5d)"/>
                                <path fill="#F7FFEE" d="M104.553 247.868c.139 0 .28-.033.411-.105.417-.226.57-.746.344-1.161-8.42-15.49-14.959-32.37-19.436-50.169-.116-.459-.59-.736-1.04-.622-.459.116-.737.581-.622 1.04 4.512 17.94 11.104 34.953 19.593 50.569.155.285.446.446.75.448" mask="url(#hoo296yn5d)"/>
                                <path fill="#B0DA5F" d="M225.372 253.295c9.108-2.916 15.674-8.559 21.086-14.62 8.106-9.082 14.158-19.533 15.656-31.21.438-3.408.477-6.956-.723-10.53-1.067-3.179-3.727-6.755-7.921-7.852-3.492-.911-6.748.232-9.254 1.645-9.928 5.604-14.125 15.322-16.579 25.01-2.454 9.687-3.599 19.903-8.974 28.49-1.787 2.857-4.05 5.548-4.823 8.783 2.672 1.608 6.134 1.994 9.006 1.567 2.87-.426 5.28-1.558 7.636-2.674" mask="url(#hoo296yn5d)"/>
                                <path fill="#E1FBA3" d="M222.848 252.228c-.278.026-.591-.054-.84-.235-.409-.298-.49-.755-.179-1.023 13.914-11.994 25.97-37.381 27.055-51.218.03-.388.47-.624.984-.524.512.099.901.493.871.88-1.1 14.035-13.322 39.78-27.43 51.94-.121.104-.284.163-.46.18" mask="url(#hoo296yn5d)"/>
                                <path fill="#C3F271" d="M221.436 256.714c-2.664-.513-.878-7.826 2.042-8.966 8.78-3.428 15.018-9.885 22.031-15.389 7.012-5.503 15.436-10.237 26.31-9.56 2.741.17 5.946.867 8.266 3.073 2.79 2.652 3.057 6.302 2.256 8.956-.9 2.986-2.597 5.573-4.907 7.521-19.934 16.81-42.147 17.026-55.998 14.365" mask="url(#hoo296yn5d)"/>
                                <path fill="#F7FFEE" d="M226.788 251.431c-.429.05-.837-.221-.935-.64-.107-.45.18-.896.642-.998 16.884-3.769 32.833-10.076 47.401-18.746.405-.241.932-.117 1.178.275.248.392.122.906-.282 1.145-14.726 8.765-30.847 15.14-47.912 18.949-.032.006-.062.012-.092.015" mask="url(#hoo296yn5d)"/>
                                <path fill="#324550" d="M204.276 96.066L291.644 96.066 291.644 32.109 204.276 32.109z" mask="url(#hoo296yn5d)"/>
                                <path fill="#FFF" d="M207.708 92.651L288.213 92.651 288.213 35.524 207.708 35.524z" mask="url(#hoo296yn5d)"/>
                                <path fill="#FF4A00" d="M237.433 48.914h-6.14v-6.14c0-.418-.339-.757-.757-.757l-6.763.001c-.417 0-.757.34-.757.757v6.14h-6.14c-.418.001-.757.34-.757.757v6.764c0 .418.339.756.757.756h6.14v6.139c0 .418.339.756.756.756h6.763c.418 0 .757-.339.757-.757v-6.14h6.14c.417 0 .757-.339.757-.757V49.67c0-.417-.339-.756-.756-.756" mask="url(#hoo296yn5d)"/>
                                <path fill="#324550" d="M250.023 49.018L278.669 49.018 278.669 46.92 250.023 46.92zM250.023 60.941L278.669 60.941 278.669 58.842 250.023 58.842zM226.318 73.111L278.669 73.111 278.669 71.012 226.318 71.012zM226.318 85.892L278.669 85.892 278.669 83.794 226.318 83.794zM216.119 74.979L221.955 74.979 221.955 69.143 216.119 69.143zM216.119 87.761L221.955 87.761 221.955 81.925 216.119 81.925z" mask="url(#hoo296yn5d)"/>
                                <path fill="#CAE0E0" d="M91.787 56.25c0 4.328-3.51 7.837-7.839 7.837-4.328 0-7.838-3.51-7.838-7.838s3.51-7.838 7.838-7.838c4.33 0 7.839 3.51 7.839 7.838" mask="url(#hoo296yn5d)"/>
                                <path fill="#C76F00" d="M124.366 181.354H43.532c-1.053 0-1.905-.854-1.905-1.906V68.459c0-1.052.852-1.905 1.905-1.905h80.834c1.052 0 1.905.853 1.905 1.905v110.989c0 1.052-.853 1.906-1.905 1.906" mask="url(#hoo296yn5d)"/>
                                <path fill="#FF9B00" d="M124.366 179.733H43.532c-1.053 0-1.905-.853-1.905-1.906V66.84c0-1.053.852-1.905 1.905-1.905h80.834c1.052 0 1.905.852 1.905 1.905v110.988c0 1.053-.853 1.906-1.905 1.906" mask="url(#hoo296yn5d)"/>
                                <path fill="#F8F8F8" d="M118.65 174.017H49.247c-1.051 0-1.906-.852-1.906-1.905V72.554c0-1.052.855-1.906 1.906-1.906h69.403c1.052 0 1.906.854 1.906 1.906v99.558c0 1.053-.854 1.905-1.906 1.905" mask="url(#hoo296yn5d)"/>
                                <path fill="#D2E1E2" d="M120.073 73.045H47.824c-.266 0-.482-.216-.482-.483v-.008c0-1.052.853-1.905 1.905-1.905h69.403c1.052 0 1.906.853 1.906 1.905v.008c0 .267-.216.483-.483.483" mask="url(#hoo296yn5d)"/>
                                <path fill="#FFCF00" d="M102.822 73.677H65.076c-.624 0-1.13-.506-1.13-1.13V57.379c0-.624.506-1.13 1.13-1.13h37.746c.624 0 1.128.506 1.128 1.13v15.168c0 .624-.504 1.13-1.128 1.13" mask="url(#hoo296yn5d)"/>
                                <path fill="#CAE0E0" d="M102.822 74.557H65.076c-.624 0-1.13-.505-1.13-1.13V58.26c0-.624.506-1.13 1.13-1.13h37.746c.624 0 1.128.506 1.128 1.13v15.168c0 .624-.504 1.13-1.128 1.13" mask="url(#hoo296yn5d)"/>
                                <path fill="#EEF9FA" d="M102.822 73.677H65.076c-.624 0-1.13-.506-1.13-1.13V57.379c0-.624.506-1.13 1.13-1.13h37.746c.624 0 1.128.506 1.128 1.13v15.168c0 .624-.504 1.13-1.128 1.13" mask="url(#hoo296yn5d)"/>
                                <path fill="#EEF9FA" d="M91.787 56.25c0 4.328-3.51 7.837-7.839 7.837-4.328 0-7.838-3.51-7.838-7.838s3.51-7.838 7.838-7.838c4.33 0 7.839 3.51 7.839 7.838" mask="url(#hoo296yn5d)"/>
                                <path fill="#FFF" d="M87.76 56.25c0 2.104-1.706 3.81-3.811 3.81s-3.811-1.706-3.811-3.81c0-2.106 1.706-3.812 3.81-3.812 2.106 0 3.811 1.706 3.811 3.811" mask="url(#hoo296yn5d)"/>
                                <path fill="#FF4A00" d="M82.919 95.267H74.55l.001-8.367c0-.57-.462-1.03-1.03-1.03h-9.217c-.57.002-1.03.463-1.03 1.033l-.002 8.366h-8.367c-.569 0-1.03.463-1.03 1.032v9.215c0 .57.46 1.031 1.03 1.031h8.367v8.367c0 .569.461 1.03 1.03 1.03l9.217-.001c.57 0 1.031-.461 1.031-1.031v-8.367l8.367-.001c.57 0 1.031-.461 1.031-1.031v-9.216c0-.57-.461-1.03-1.03-1.03" mask="url(#hoo296yn5d)"/>
                                <path fill="#324550" d="M92.936 88.126L115.519 88.126 115.519 86.472 92.936 86.472zM92.936 96.849L115.519 96.849 115.519 95.194 92.936 95.194zM92.936 105.571L115.519 105.571 115.519 103.916 92.936 103.916zM92.936 114.293L115.519 114.293 115.519 112.639 92.936 112.639zM53.874 128.508L115.519 128.508 115.519 126.854 53.874 126.854zM53.874 137.23L115.519 137.23 115.519 135.576 53.874 135.576zM53.874 145.952L115.519 145.952 115.519 144.298 53.874 144.298zM53.874 154.675L115.519 154.675 115.519 153.02 53.874 153.02z" mask="url(#hoo296yn5d)"/>
                                <path fill="#843E18" d="M127.604 113.625s-1.484-.065-4.634 1.826c-3.151 1.892-4.792 5.349-4.792 5.349s3.46 5.492 8.428 2.234c5.324-3.492.998-9.409.998-9.409" mask="url(#hoo296yn5d)"/>
                                <path fill="#FED1AB" d="M130.095 117.779L126.354 112.377 120.226 116.67 122.718 122.859z" mask="url(#hoo296yn5d)"/>
                                <path fill="#FECD00" d="M153.488 106.695c-5.651 10.284-9.301 18.291-12.18 23.044-5.51-6.588-12.913-15.222-13.704-16.113-.544 2.1-4.703 6.703-9.426 7.174 4.436 14.626 14.096 24.433 21.21 29.767 8.554 1.4 18.265-13.712 25.547-29.601 4.261-9.298 3.16-24.794-1.74-23.067-3.174 1.119-4.773-.181-9.707 8.796" mask="url(#hoo296yn5d)"/>
                                <path fill="#FEDD53" d="M145.698 147.415c.288.24.615.548.922.891-2.447 1.78-4.883 2.645-7.232 2.26-1.8-1.349-3.764-2.988-5.765-4.917 3.942-1.612 8.792-.984 12.075 1.766" mask="url(#hoo296yn5d)"/>
                                <path fill="#DC9711" d="M146.543 137.44c-.129 0-.244-.09-.27-.22-.49-2.392-3.543-5.068-3.575-5.095-.114-.1-.127-.274-.027-.39.1-.115.275-.127.39-.026.132.114 3.226 2.827 3.753 5.4.03.15-.066.296-.216.327-.018.003-.037.005-.055.005M146.958 132.142c-.029 0-.058-.004-.088-.014-.725-.243-1.476-.42-2.23-.53-.152-.021-.256-.161-.235-.312.022-.15.152-.259.313-.235.788.114 1.571.3 2.329.553.144.05.221.205.173.35-.039.115-.146.188-.262.188" mask="url(#hoo296yn5d)"/>
                                <path fill="#843E18" d="M164.736 121.395c-.329-1.436-7.503-6.688-7.976-5.83-1.653 2.998-9.172 30.531-9.536 32.282 6.193-4.872 12.428-15.436 17.512-26.452" mask="url(#hoo296yn5d)"/>
                                <path fill="#C05F5F" d="M170.15 92.569L190.327 92.56 187.131 98.733 170.989 99.018z" mask="url(#hoo296yn5d)"/>
                                <path fill="#FECD00" d="M161.433 99.017l8.096-5.141s2.18 5.128 5.203 8.934c4.546-1.938 13.079-7.122 14.864-6.975 3.116 1.604 7.538 4.48 7.538 4.48l-.52 80.21H142.88c2.94-28.237 18.553-81.508 18.553-81.508" mask="url(#hoo296yn5d)"/>
                                <path fill="#FED1AB" d="M190.102 76.062s-1.703 18.842-2.173 20.626c-1.191 4.52-4.966 7.808-12.812 7.098-4.85-.44-4.136-4.72-2.236-8.977.503-1.4 5.864-13.512 5.864-13.512l11.357-5.235z" mask="url(#hoo296yn5d)"/>
                                <path fill="#F88B8B" d="M177.22 84.87l12.08-5.441c-1.531 6.272-9.124 11.11-14.216 10.2 0 0 1.986-4.46 2.137-4.76" mask="url(#hoo296yn5d)"/>
                                <path fill="#FED1AB" d="M166.537 55.726c-1.107 4.807-2.602 13.393-2.47 20.97.096 5.523 6.347 11.18 7.688 11.279 1.875.14 15.184-.224 18.572-10.578 4.789-14.636 11.29-28.457-5.23-31.494-14.175-2.606-16.59 1.266-18.56 9.823" mask="url(#hoo296yn5d)"/>
                                <path fill="#38393A" d="M186.543 65.954c-1.724-.356-5.116-3.01-7.65-5.665.27 1.045.237 3.079-.682 2.991-3.286-.313-7.51-5.467-9.577-8.574-2.604-3.913-1.126-7.772.708-9.368 4.278-3.725 22.284-.088 26.643 6.32 4.42 6.874.534 15.106-2.063 17.26-.553.808-5.597 4.682-6.644 4.511-.293-.304-.735-7.475-.735-7.475" mask="url(#hoo296yn5d)"/>
                                <path fill="#FED1AB" d="M187.767 73.233c-.1 2.518-.198 3.278 2.33 3.172 2.529-.105 5.155-2.136 5.299-5.726.1-2.517-1.81-4.72-4.361-3.267-2.404 1.368-3.166 3.304-3.268 5.821" mask="url(#hoo296yn5d)"/>
                                <path fill="#F88B8B" d="M189.643 73.312c-.024 0-.05-.003-.074-.01-.147-.04-.233-.193-.193-.34.29-1.04.839-2.016 1.59-2.824.41-.44.786-.715 1.182-.863.55-.204 1.137-.125 1.498.202.112.103.121.278.019.39-.104.113-.277.121-.392.02-.204-.187-.577-.224-.932-.093-.312.116-.62.345-.97.721-.692.743-1.198 1.64-1.461 2.594-.035.123-.145.203-.267.203" mask="url(#hoo296yn5d)"/>
                                <path fill="#38393A" d="M174.526 45.6s-3.659.943-6.673 4.273c-2.94 3.249-2.943 10.03-2.83 12.571.006.144.21.16.241.018.531-2.408 3.618-6.584 8.379-10.297 2.605-2.031.883-6.565.883-6.565" mask="url(#hoo296yn5d)"/>
                                <path fill="#F88B8B" d="M171.746 78.222h-.006c-.044-.001-1.112-.029-1.773-.594-.444-.38-.594-.858-.382-1.218.025-.044.084-.122.17-.232.35-.454 1.171-1.515 1.623-3.067.043-.146.193-.232.342-.188.147.042.23.196.188.343-.48 1.652-1.346 2.772-1.716 3.249-.065.083-.11.14-.13.174-.075.126.08.362.263.519.51.435 1.418.46 1.427.46.153.004.273.131.27.283-.004.15-.126.27-.276.27" mask="url(#hoo296yn5d)"/>
                                <path fill="#FEE169" d="M173.657 104.084L177.862 110.712 192.712 97.439 190.327 92.56 174.613 101.544 170.15 92.569 168.876 94.333 166.086 105.736z" mask="url(#hoo296yn5d)"/>
                                <path fill="#FEDD53" d="M145.698 147.415c.288.24.615.548.922.891-2.447 1.78-4.883 2.645-7.232 2.26-1.8-1.349-3.764-2.988-5.765-4.917 3.942-1.612 8.792-.984 12.075 1.766" mask="url(#hoo296yn5d)"/>
                                <path fill="#843E18" d="M231.338 113.48s1.484-.064 4.633 1.826c3.152 1.892 4.792 5.35 4.792 5.35s-3.46 5.491-8.427 2.233c-5.324-3.491-.998-9.409-.998-9.409" mask="url(#hoo296yn5d)"/>
                                <path fill="#FED1AB" d="M228.847 117.634L232.588 112.233 238.716 116.525 236.224 122.714z" mask="url(#hoo296yn5d)"/>
                                <path fill="#FECD00" d="M205.454 106.55c5.651 10.284 9.3 18.291 12.18 23.045 5.51-6.588 12.913-15.223 13.704-16.115.544 2.102 4.703 6.704 9.426 7.175-4.436 14.626-14.097 24.433-21.21 29.768-8.555 1.398-18.265-13.712-25.548-29.602-4.26-9.297-3.16-24.794 1.741-23.067 3.173 1.119 4.773-.182 9.707 8.796" mask="url(#hoo296yn5d)"/>
                                <path fill="#FEDD53" d="M213.243 147.27c-.287.241-.615.548-.922.892 2.448 1.779 4.884 2.645 7.233 2.26 1.8-1.35 3.763-2.99 5.764-4.918-3.941-1.611-8.791-.984-12.075 1.767" mask="url(#hoo296yn5d)"/>
                                <path fill="#DC9711" d="M212.399 137.296c-.018 0-.037-.001-.055-.005-.15-.03-.247-.177-.216-.326.526-2.574 3.62-5.287 3.753-5.4.113-.101.289-.09.39.026.099.115.086.29-.028.39-.032.026-3.085 2.705-3.574 5.095-.027.13-.142.22-.27.22M211.984 131.997c-.116 0-.224-.073-.262-.188-.048-.145.029-.301.173-.35.754-.252 1.537-.439 2.328-.553.158-.026.29.084.314.235.021.15-.083.29-.235.312-.758.11-1.509.288-2.23.53-.03.01-.06.014-.088.014" mask="url(#hoo296yn5d)"/>
                                <path fill="#D3A27E" d="M117.422 114.733c.268.452.651.83 1.03 1.198.46.447.934.9 1.517 1.165.583.266 1.306.315 1.841-.037.27-.176.473-.44.634-.719.344-.608.503-1.321.446-2.017-.027-.352-.109-.698-.19-1.042-.212-.796-.266-1.642-.52-2.414-.272-.83-.738-1.58-1.232-2.294-.836-1.207-1.814-2.382-3.135-3.022-.377-.183-.825-.318-1.209-.15-.502.22-.67.842-.725 1.387-.118 1.163.043 2.249.306 3.375.274 1.176.457 2.356.81 3.517.098.321.204.644.363.941.02.038.042.075.064.112" mask="url(#hoo296yn5d)"/>
                                <path fill="#EEF9FA" d="M108.7 81.99l-.927-1.39s20.848-2.174 23.212-2.174c3.188 0 4.29 4.863 4.29 4.863l10.326 33.792-25.837.73-11.065-35.82z" mask="url(#hoo296yn5d)"/>
                                <path fill="#C8DDDD" d="M105.37 80.27s-4.468.975-4.468 6.119l25.92-1.682s-.085-5.735 4.163-6.28L105.37 80.27z" mask="url(#hoo296yn5d)"/>
                                <path fill="#ACC1C1" d="M123.09 111.63c.084-.2.16-.427.077-.627-.062-.15-.202-.25-.314-.366-.495-.515-.45-1.327-.373-2.037-.32.287-.665.549-1.029.782-.256.163-.579.316-.85.18-.28-.142-.346-.514-.309-.826.068-.578.362-1.1.592-1.637.227-.536.393-1.147.194-1.695-.955.343-1.501 1.473-2.49 1.694-.14.031-.296.04-.411-.044-.153-.109-.171-.327-.162-.515.032-.664 1.2-3.833.08-3.8-.578.018-1.32.83-1.751 1.176-.238.189-.467.388-.689.595l3.6 11.66c.052-.032.104-.061.155-.094 1.626-1.077 2.925-2.645 3.68-4.445" mask="url(#hoo296yn5d)"/>
                                <path fill="#FED1AB" d="M116.251 107.285c1.098-1.146 2.335-2.29 3.888-2.62.304-.065.659-.083.885.13.152.144.21.365.206.574-.009.562-.387 1.044-.763 1.463-.881.981-1.857 1.89-2.572 2.999-.365.565-.662 1.183-1.124 1.671-.881.933-2.307.118-2.278-1.556.02-1.166 1.008-1.876 1.758-2.66" mask="url(#hoo296yn5d)"/>
                                <path fill="#FED1AB" d="M117.942 109.582c1.112-.898 2.348-1.778 3.773-1.895.28-.022.599.003.776.22.119.145.145.35.118.536-.072.501-.465.888-.85 1.219-.9.775-1.876 1.475-2.642 2.383-.39.463-.727.98-1.195 1.363-.895.733-2.653-.021-2.435-1.513.152-1.039 1.694-1.7 2.455-2.313" mask="url(#hoo296yn5d)"/>
                                <path fill="#FED1AB" d="M118.884 111.493c1.09-.714 2.29-1.4 3.596-1.38.255.004.543.055.687.267.096.142.101.329.06.495-.108.448-.5.763-.877 1.028-.886.622-1.836 1.168-2.61 1.922-.396.385-.394.548-.854.853-.877.583-2.437-.139-2.109-1.468.228-.928 1.362-1.228 2.107-1.717M114.088 108.238c-.125-.416-.25-.837-.276-1.27-.065-1.036.443-2.042 1.152-2.801.71-.758 1.607-1.309 2.494-1.849.198-.122.422-.248.65-.203.238.045.409.275.444.514.034.239-.045.48-.158.694-.328.608-.925 1.016-1.456 1.457-.533.442-.7.556-.756 1.245-.055.684.56 2.01.535 2.694-.019.545-1.044 1.155-1.656 1.223-.745.081-.81-1.156-.973-1.704" mask="url(#hoo296yn5d)"/>
                                <path fill="#FFD3AD" d="M235.968 102.153c4.009-.555 10.046 5.158 10.62 7.56-1.578 2.384-3.406 4.321-5.545 5.702-2.108 1.445-3.821 1.411-5.611.292-1.205-.754-2.953-2.89-2.243-5.398.509-1.8.632-2.16 1.355-3.872.86-1.81.88-1.78 1.424-4.284" mask="url(#hoo296yn5d)"/>
                                <path fill="#FFD3AD" d="M230.698 108.478c-.015-.633.07-1.276-.069-1.891-.106-.472-.337-.901-.582-1.312-.551-.923-1.187-1.791-1.895-2.588-.422-.474-.896-1.176-.526-1.696.35-.493 1.09-.277 1.598.03 1.165.706 2.196 1.653 3.017 2.77.423.575.793 1.196 1.273 1.719.807.88 1.9 1.452 2.61 2.42.97 1.322 1.014 3.31.103 4.678-.347.521-.284 3.44-.795 3.098-2.617-1.748-4.692-5.393-4.734-7.228" mask="url(#hoo296yn5d)"/>
                                <path fill="#FFD3AD" d="M236.782 96.646c.217-1.329.497-2.691 1.23-3.799.196-.295.553-.597.845-.409.1.065.165.176.22.286.39.792.431 1.717.433 2.61.005 3.352-.434 6.696-1.181 9.957-.145.63-.305 1.268-.617 1.83-.31.56-.796 1.044-1.397 1.201-.905.238-1.81-.317-1.519-1.29.343-1.146.678-2.27.913-3.448.457-2.295.697-4.629 1.073-6.938" mask="url(#hoo296yn5d)"/>
                                <path fill="#FFD3AD" d="M241.818 96.296c.47-1.255 1.008-2.53 1.942-3.456.249-.248.655-.466.905-.221.087.085.13.208.16.327.23.859.09 1.774-.082 2.647-.646 3.284-1.723 6.465-3.087 9.497-.264.587-.544 1.177-.958 1.66-.414.482-.983.852-1.6.878-.934.04-1.713-.698-1.239-1.588.558-1.048 1.105-2.078 1.563-3.18.893-2.149 1.58-4.384 2.396-6.564" mask="url(#hoo296yn5d)"/>
                                <path fill="#FFD3AD" d="M244.666 98.67c.555-1.216 1.18-2.446 2.176-3.299.266-.228.687-.416.919-.15.08.09.113.216.137.337.168.874-.034 1.776-.266 2.634-.872 3.225-2.168 6.316-3.738 9.236-.305.565-.625 1.132-1.07 1.582-.448.45-1.04.775-1.66.754-.932-.033-1.659-.827-1.124-1.68.63-1.002 1.246-1.987 1.78-3.052 1.04-2.075 1.879-4.25 2.846-6.363M246.801 103.588c.704-1.128 1.478-2.261 2.571-2.97.292-.19.733-.316.93-.021.068.101.086.23.093.354.058.89-.256 1.755-.594 2.573-1.268 3.077-1.29 3.512-3.214 6.188-.372.519-2.827 2.917-3.326 3.301-.498.384-.71 1.196-1.32 1.09-.921-.162-1.542-1.05-.905-1.82.75-.908 1.485-1.798 2.146-2.78 1.292-1.914 2.396-3.955 3.619-5.915" mask="url(#hoo296yn5d)"/>
                                <path fill="#FD7660" d="M238.816 113.04h-.006c-.177-.003-.32-.15-.316-.329.036-2.023-1.09-4.003-2.803-4.925-.158-.085-.217-.28-.132-.437.085-.158.281-.214.437-.131 1.92 1.034 3.184 3.246 3.143 5.505-.003.176-.148.317-.323.317" mask="url(#hoo296yn5d)"/>
                                <path fill="#EA7471" d="M177.352 84.831c-2.583.592-3.307-1.398-3.677-2.577-.07-.221.082-.448.312-.464 1.424-.1 4.198-1.019 5.223-1.77.213-.157.513-.025.56.234.248 1.335.12 3.995-2.418 4.577" mask="url(#hoo296yn5d)"/>
                                <path fill="#49CED1" d="M136.35 165.788l-7.862-15.838H96.412l-7.861 15.838 7.707 89.418c.087 1.017.938 1.797 1.958 1.797H233.31c1.021 0 1.872-.78 1.96-1.797l7.522-87.284c.098-1.148-.806-2.134-1.958-2.134H136.35z" mask="url(#hoo296yn5d)"/>
                                <path fill="#EEF9FA" d="M195.21 204.723l-13.853.002V190.87c0-.941-.762-1.705-1.705-1.705l-15.258.001c-.942.001-1.707.765-1.707 1.708v13.852l-13.853.001c-.943 0-1.707.764-1.707 1.707v15.258c0 .942.764 1.706 1.706 1.706l13.853-.002v13.853c0 .941.764 1.705 1.706 1.705l15.257-.001c.944 0 1.707-.765 1.707-1.707l.001-13.853h13.852c.943-.001 1.707-.765 1.707-1.708v-15.258c0-.94-.763-1.705-1.706-1.705" mask="url(#hoo296yn5d)"/>
                                <path fill="#2C8D8D" d="M301.648 144.407c-.852 0-1.546.693-1.546 1.545s.694 1.545 1.546 1.545c.851 0 1.544-.693 1.544-1.545s-.693-1.545-1.544-1.545m0 4.807c-1.8 0-3.262-1.463-3.262-3.262 0-1.798 1.462-3.262 3.262-3.262 1.798 0 3.261 1.464 3.261 3.262 0 1.8-1.463 3.262-3.261 3.262" mask="url(#hoo296yn5d)"/>
                                <path fill="#FFF" d="M288.213 208.16c-.852 0-1.545.692-1.545 1.544 0 .852.693 1.545 1.545 1.545s1.544-.693 1.544-1.545-.692-1.544-1.544-1.544m0 4.806c-1.8 0-3.262-1.463-3.262-3.262s1.463-3.261 3.262-3.261c1.798 0 3.261 1.462 3.261 3.261 0 1.8-1.463 3.262-3.261 3.262" mask="url(#hoo296yn5d)"/>
                                <path fill="#F89F20" d="M150.486 40.473c-.852 0-1.545.693-1.545 1.544 0 .853.693 1.546 1.545 1.546s1.544-.693 1.544-1.546c0-.851-.692-1.544-1.544-1.544m0 4.807c-1.8 0-3.262-1.463-3.262-3.263 0-1.797 1.463-3.261 3.262-3.261s3.261 1.464 3.261 3.261c0 1.8-1.462 3.263-3.26 3.263" mask="url(#hoo296yn5d)"/>
                                <path fill="#2C8D8D" d="M24.693 189.023c-.851 0-1.545.694-1.545 1.545 0 .852.694 1.546 1.545 1.546.852 0 1.545-.694 1.545-1.546 0-.851-.693-1.545-1.545-1.545m0 4.808c-1.799 0-3.262-1.464-3.262-3.263 0-1.798 1.463-3.262 3.262-3.262s3.262 1.464 3.262 3.262c0 1.799-1.463 3.263-3.262 3.263M39.242 39.38l8.632 14.933c.343.597.139 1.36-.459 1.705l-.027.016c-.597.344-1.36.14-1.704-.457l-8.63-14.933c-.345-.597-.14-1.36.456-1.704l.028-.017c.597-.345 1.36-.14 1.704.457" mask="url(#hoo296yn5d)"/>
                                <path fill="#F89F20" d="M253.973 1.656l-5.504 16.35c-.221.652-.93 1.003-1.583.783l-.03-.01c-.653-.221-1.004-.928-.783-1.58l5.504-16.35c.22-.652.929-1.003 1.582-.784l.03.01c.654.221 1.005.929.784 1.581M319.544 57.093l-16.21 5.903c-.649.235-1.365-.099-1.6-.746l-.011-.03c-.235-.648.098-1.364.745-1.6l16.21-5.902c.648-.236 1.364.1 1.6.747l.01.03c.237.648-.097 1.363-.744 1.598" mask="url(#hoo296yn5d)"/>
                                <path fill="#2C8D8D" d="M9.96 52.344l14.944 8.613c.597.345.801 1.109.456 1.705l-.015.028c-.344.597-1.108.802-1.703.456L8.697 54.533c-.597-.344-.8-1.107-.457-1.704l.017-.028c.344-.597 1.107-.801 1.704-.457" mask="url(#hoo296yn5d)"/>
                            </g>
                        </g>
                    </g>
                </g>
            </g>
        </g>
    </g>
</svg>
