<svg xmlns="http://www.w3.org/2000/svg" width="36" height="36" viewBox="0 0 36 36">
    <g fill="none" fill-rule="evenodd">
        <path fill="#FFF" d="M21.746 25.565H3.925c-1.875 0-3.395-1.52-3.395-3.394V3.925C.53 2.05 2.05.53 3.925.53h17.821c1.875 0 3.395 1.52 3.395 3.395V22.17c0 1.874-1.52 3.394-3.395 3.394" transform="translate(5.192 4.846)"/>
        <path fill="#2B8E8E" d="M3.925 1.06c-1.58 0-2.864 1.286-2.864 2.865V22.17c0 1.579 1.285 2.864 2.864 2.864h17.821c1.58 0 2.864-1.285 2.864-2.864V3.925c0-1.58-1.284-2.864-2.864-2.864H3.925zm17.821 25.036H3.925C1.76 26.096 0 24.335 0 22.17V3.925C0 1.76 1.76 0 3.925 0h17.821c2.165 0 3.925 1.76 3.925 3.925V22.17c0 2.164-1.76 3.925-3.925 3.925z" transform="translate(5.192 4.846)"/>
        <path fill="#2B8E8E" d="M19.385 24.923h2.536c1.464 0 2.656-1.181 2.656-2.634v-2.904H22.04c-1.465 0-2.656 1.181-2.656 2.633v2.905zm2.535 1.039h-3.074c-.276 0-.5-.223-.5-.496v-3.45c0-2.023 1.658-3.67 3.696-3.67h3.074c.276 0 .5.222.5.496v3.45c0 2.023-1.658 3.67-3.696 3.67z" transform="translate(5.192 4.846)"/>
        <g fill="#F9A01F" transform="translate(5.192 4.846) translate(6.577 6.577)">
            <rect width="1.385" height="1.385" rx=".692"/>
            <rect width="9.346" height="1.385" x="3.115" rx=".692"/>
            <g transform="translate(0 5.538)">
                <rect width="1.385" height="1.385" rx=".692"/>
                <rect width="9.346" height="1.385" x="3.115" rx=".692"/>
            </g>
            <g transform="translate(0 11.077)">
                <rect width="1.385" height="1.385" rx=".692"/>
                <rect width="9.346" height="1.385" x="3.115" rx=".692"/>
            </g>
        </g>
    </g>
</svg>
