<svg xmlns="http://www.w3.org/2000/svg" xmlns:xlink="http://www.w3.org/1999/xlink" width="36" height="36" viewBox="0 0 36 36">
    <defs>
        <path id="zlw7m6kboa" d="M0 0.119L28.904 0.119 28.904 26.155 0 26.155z"/>
    </defs>
    <g fill="none" fill-rule="evenodd">
        <path fill="#FFF" d="M28.298 4.965c0-2.14-1.735-3.875-3.875-3.875H4.48C2.34 1.09.605 2.825.605 4.965V22.04c0 2.14 1.735 3.875 3.875 3.875h19.943c2.14 0 3.875-1.734 3.875-3.875V4.965z" transform="translate(2.88 4.68)"/>
        <g transform="translate(2.88 4.68) translate(0 .365)">
            <mask id="t919f1u3hb" fill="#fff">
                <use xlink:href="#zlw7m6kboa"/>
            </mask>
            <path fill="#2B8E8E" d="M4.48 1.33c-1.802 0-3.27 1.467-3.27 3.27v17.075c0 1.803 1.468 3.27 3.27 3.27h19.944c1.802 0 3.269-1.467 3.269-3.27V4.6c0-1.802-1.467-3.27-3.27-3.27H4.48zm19.944 24.825H4.48c-2.47 0-4.48-2.01-4.48-4.48V4.6C0 2.13 2.01.12 4.48.12h19.944c2.47 0 4.48 2.01 4.48 4.48v17.076c0 2.47-2.01 4.48-4.48 4.48z" mask="url(#t919f1u3hb)"/>
        </g>
        <path fill="#2B8E8E" d="M19.356 14.21H.736c-.335 0-.606-.272-.606-.606 0-.334.271-.605.606-.605h18.62c.334 0 .605.27.605.605 0 .334-.271.605-.605.605" transform="translate(2.88 4.68)"/>
        <path fill="#FFF" d="M22.462 12.331c-.647 0-1.172.525-1.172 1.172 0 .647.525 1.172 1.172 1.172.647 0 1.172-.525 1.172-1.172 0-.647-.525-1.172-1.172-1.172" transform="translate(2.88 4.68)"/>
        <path fill="#FFF" d="M22.462 12.331c-.647 0-1.172.525-1.172 1.172 0 .647.525 1.172 1.172 1.172.647 0 1.172-.525 1.172-1.172 0-.647-.525-1.172-1.172-1.172" transform="translate(2.88 4.68)"/>
        <path fill="#FFEDBB" d="M28.194 17.49h-5.127c-2.05 0-3.711-1.661-3.711-3.71v-.554c0-2.05 1.662-3.71 3.71-3.71h5.128c.803 0 1.453.65 1.453 1.452v5.07c0 .802-.65 1.452-1.453 1.452" transform="translate(2.88 4.68)"/>
        <path fill="#F9A01F" d="M23.067 10.12c-1.713 0-3.106 1.394-3.106 3.107v.552c0 1.712 1.393 3.106 3.106 3.106h5.127c.468 0 .848-.38.848-.848v-5.069c0-.467-.38-.847-.848-.847h-5.127zm5.127 7.976h-5.127c-2.38 0-4.317-1.937-4.317-4.317v-.552c0-2.38 1.937-4.317 4.317-4.317h5.127c1.136 0 2.059.924 2.059 2.058v5.07c0 1.134-.923 2.058-2.059 2.058z" transform="translate(2.88 4.68)"/>
        <path fill="#F9A01F" d="M22.462 12.331c-.647 0-1.172.525-1.172 1.172 0 .647.525 1.172 1.172 1.172.647 0 1.172-.525 1.172-1.172 0-.647-.525-1.172-1.172-1.172" transform="translate(2.88 4.68)"/>
    </g>
</svg>
