<svg xmlns="http://www.w3.org/2000/svg" width="207" height="144" viewBox="0 0 207 144">
    <g fill="none" fill-rule="evenodd">
        <g fill-rule="nonzero">
            <g>
                <path fill="#C8F5FA" d="M21.337 33.416h17.586c1.707-.008 3.392.395 4.91 1.175v-5.985c.017-4.312 4.202-7.845 9.363-7.845H65.71v107.143c0 4.823-4.67 8.733-10.434 8.733H15.737c-2.071 0-3.75-1.677-3.75-3.746V41.243c0-4.324 4.188-7.827 9.35-7.827z" transform="translate(-357 -929) translate(357 929)"/>
                <path fill="#FFF" d="M23.407 62.481H28.134999999999998V66.43900000000001H23.407z" transform="translate(-357 -929) translate(357 929) rotate(-180 25.771 64.46)"/>
                <path fill="#FFF" d="M23.407 86.316H28.134999999999998V90.274H23.407z" transform="translate(-357 -929) translate(357 929) rotate(-180 25.771 88.295)"/>
                <path fill="#FFF" d="M33.009 107.951H37.737V111.90899999999999H33.009z" transform="translate(-357 -929) translate(357 929) rotate(-180 35.374 109.93)"/>
                <path fill="#FFF" d="M50.489 27.678H55.217V31.636000000000003H50.489z" transform="translate(-357 -929) translate(357 929) rotate(-180 52.854 29.657)"/>
                <path fill="#FFF" d="M55.218 47.582H59.946000000000005V51.54H55.218z" transform="translate(-357 -929) translate(357 929) rotate(-180 57.582 49.56)"/>
                <path fill="#FFF" d="M26.561 40.81H31.289V44.768H26.561z" transform="translate(-357 -929) translate(357 929) rotate(-180 28.925 42.79)"/>
                <path fill="#FFF" d="M23.407 55.347H28.134999999999998V59.305H23.407z" transform="translate(-357 -929) translate(357 929) rotate(-180 25.771 57.326)"/>
                <path fill="#C1EBF2" d="M166.962 61.147h12.23c1.186-.005 2.356.275 3.41.817v-4.16c0-3 2.906-5.434 6.493-5.434h3.83c2.688 0 4.866 2.175 4.866 4.859v68.387c0 3.996-3.244 7.235-7.245 7.235h-21.584c-4.683 0-8.48-3.791-8.48-8.468V66.585c-.013-3.004 2.893-5.438 6.48-5.438z" transform="translate(-357 -929) translate(357 929)"/>
                <path fill="#FFF" d="M168.4 81.333H171.686V84.085H168.4z" transform="translate(-357 -929) translate(357 929) rotate(-180 170.043 82.71)"/>
                <path fill="#FFF" d="M168.4 97.889H171.686V100.64099999999999H168.4z" transform="translate(-357 -929) translate(357 929) rotate(-180 170.043 99.265)"/>
                <path fill="#FFF" d="M175.07 112.925H178.356V115.67699999999999H175.07z" transform="translate(-357 -929) translate(357 929) rotate(-180 176.713 114.301)"/>
                <path fill="#FFF" d="M187.211 57.158H190.497V59.910000000000004H187.211z" transform="translate(-357 -929) translate(357 929) rotate(-180 188.854 58.534)"/>
                <path fill="#FFF" d="M190.498 70.984H193.784V73.73599999999999H190.498z" transform="translate(-357 -929) translate(357 929) rotate(-180 192.14 72.36)"/>
                <path fill="#FFF" d="M170.585 66.28H173.871V69.032H170.585z" transform="translate(-357 -929) translate(357 929) rotate(-180 172.228 67.656)"/>
                <path fill="#FFF" d="M168.4 76.377H171.686V79.12899999999999H168.4z" transform="translate(-357 -929) translate(357 929) rotate(-180 170.043 77.753)"/>
                <path fill="#C8F5FA" d="M98.758 25.62h14.566c4.268 0 7.731 2.897 7.731 6.475v5.221h7.28c4.273 0 7.737 2.898 7.737 6.471v86.078c0 3.574-3.464 6.476-7.736 6.476h-37.31V32.082c0-3.578 3.46-6.462 7.732-6.462z" transform="translate(-357 -929) translate(357 929)"/>
                <path fill="#FFF" d="M127.358 44.477H131.272V47.75H127.358z" transform="translate(-357 -929) translate(357 929) rotate(-180 129.315 46.113)"/>
                <path fill="#FFF" d="M101.846 34.083H105.76V37.356H101.846z" transform="translate(-357 -929) translate(357 929) rotate(-180 103.803 35.72)"/>
                <path fill="#FFF" d="M101.846 40.514H105.76V43.787000000000006H101.846z" transform="translate(-357 -929) translate(357 929) rotate(-180 103.803 42.15)"/>
                <path fill="#FFF" d="M111.594 78.922H115.508V82.195H111.594z" transform="translate(-357 -929) translate(357 929) rotate(-180 113.551 80.558)"/>
                <path fill="#E1FD87" d="M72.945 110.465c-8.302-.292-17.542 1.325-24.747 3.255 3.901 5.862 8.846 10.562 14.8 13.349 21.27 9.947 47.327 14.462 69.783 7.067-10.655-7.84-34.19-22.775-59.836-23.671z" transform="translate(-357 -929) translate(357 929)"/>
                <path fill="#C0F070" d="M162.601 107.934c-.494.068-.961.266-1.353.574-6.193 5.26-18.29 13.137-39.865 19.586-16.94 5.057-36.49 4.046-52.427 1.563 26.397 10.641 58.566 12.673 82.066-5.009 4.462-3.357 8.434-9.386 11.58-16.714z" transform="translate(-357 -929) translate(357 929)"/>
                <path fill="#FFCE00" d="M174.88 31.676l4.042-4.86c.132-.154.196-.355.177-.558-.02-.202-.12-.388-.278-.515-.339-.26-.824-.203-1.093.128l-4.043 4.86c-.131.154-.195.355-.176.556.018.202.117.388.274.517.34.26.826.204 1.097-.128z" transform="translate(-357 -929) translate(357 929)"/>
                <path fill="#2C8C8C" d="M48.84 1.55l2.516 5.787c.079.187.23.334.42.408.188.074.4.069.584-.015.384-.187.55-.644.376-1.034L50.237.883c-.08-.186-.23-.332-.42-.405-.189-.074-.4-.067-.584.017-.193.086-.344.247-.418.445-.074.199-.065.419.025.61zM15.697 60.723l-6.271.04c-.205.002-.4.086-.542.233-.142.147-.22.344-.215.549.015.428.368.766.796.764l6.272-.044c.204-.002.399-.085.54-.231.142-.146.218-.344.212-.547v-.022c-.019-.42-.37-.75-.792-.742z" transform="translate(-357 -929) translate(357 929)"/>
                <path fill="#FF9A00" d="M39.4 14.135l-4.626-4.218c-.15-.138-.35-.21-.554-.199-.203.011-.394.103-.53.256-.282.322-.255.811.063 1.1l4.626 4.227c.15.138.35.21.554.198.204-.01.395-.103.53-.255.289-.324.26-.82-.062-1.109z" transform="translate(-357 -929) translate(357 929)"/>
                <path fill="#F79E20" d="M111.125 5.773c-.928 0-1.68-.751-1.68-1.678 0-.927.752-1.679 1.68-1.679.929 0 1.681.752 1.681 1.679s-.752 1.678-1.68 1.678zm0-2.473c-.44 0-.796.356-.796.795 0 .439.357.795.796.795.44 0 .797-.356.797-.795-.003-.438-.358-.793-.797-.795zM205.204 88.268c-.928 0-1.68-.751-1.68-1.678 0-.927.752-1.679 1.68-1.679.928 0 1.681.752 1.681 1.679s-.753 1.678-1.68 1.678zm0-2.473c-.44 0-.796.356-.796.795 0 .44.357.795.796.795.44 0 .796-.356.796-.795-.002-.438-.357-.793-.796-.795zM1.68 112.196c-.68 0-1.293-.41-1.552-1.037-.26-.628-.116-1.35.366-1.83.481-.48 1.205-.622 1.833-.36.628.26 1.036.874 1.035 1.553-.003.926-.755 1.674-1.681 1.674zm0-2.469c-.439 0-.795.356-.795.795 0 .44.356.795.796.795.44 0 .796-.356.796-.795.005-.214-.077-.42-.227-.573-.15-.153-.355-.24-.57-.24v.018z" transform="translate(-357 -929) translate(357 929)"/>
                <path fill="#2C8C8C" d="M184.584 42.135l4.95-2.018c.338-.134.721.027.862.362.066.161.066.342-.003.502-.068.16-.198.287-.36.35l-4.945 2.02c-.165.07-.352.072-.519.004-.166-.068-.298-.2-.366-.367-.064-.163-.06-.346.011-.506.072-.16.205-.285.37-.347z" transform="translate(-357 -929) translate(357 929)"/>
                <path fill="#AFD95F" d="M51.578 135.978c-7.294-2.111-13.42-6.81-18.807-11.926-8.077-7.695-15.004-16.728-18.936-27.113-1.145-3.03-2.039-6.21-2.043-9.479 0-2.906 1.044-6.259 3.813-7.47 2.3-1.01 4.931-.163 7.077.968 8.545 4.475 13.945 12.956 18.085 21.507 4.14 8.552 7.458 17.642 13.438 25.041 1.986 2.465 4.281 4.753 5.626 7.611-1.54 1.586-3.945 2.12-6.126 1.895-2.18-.225-4.197-1.104-6.192-1.979" transform="translate(-357 -929) translate(357 929)"/>
                <path fill="#E0FAA2" d="M53.143 134.883c.214.01.42-.086.549-.256.108-.139.156-.315.134-.489-.023-.174-.114-.332-.254-.439-12.986-9.983-27.892-32.077-32.054-44.423-.122-.346-.501-.527-.847-.405-.345.122-.527.501-.404.846 4.22 12.519 19.333 34.923 32.5 45.056.112.074.243.112.376.11z" transform="translate(-357 -929) translate(357 929)"/>
                <path fill="#C2F271" d="M58.929 140.466c2.052-.42.601-6.042-1.663-6.895-6.812-2.58-11.708-7.496-17.158-11.657-5.449-4.16-12.017-7.743-20.408-7.12-2.114.159-4.582.728-6.351 2.451-1.822 1.809-2.464 4.49-1.659 6.926.703 2.248 2.044 4.243 3.862 5.743 15.556 12.76 32.708 12.717 43.377 10.552z" transform="translate(-357 -929) translate(357 929)"/>
                <path fill="#F7FFEE" d="M54.744 136.425c.332.035.639-.18.717-.504.036-.168.004-.344-.091-.488-.095-.144-.244-.243-.413-.276-12.927-2.687-25.344-7.412-36.783-13.998-.312-.185-.714-.087-.906.22-.09.148-.116.324-.072.49.043.167.152.31.302.394 11.562 6.651 24.111 11.423 37.176 14.135l.07.027z" transform="translate(-357 -929) translate(357 929)"/>
                <path fill="#C2F271" d="M58.588 139.764c1.464 1.184 5.047-.884 4.118-3.238-2.795-7.13-4.71-18.296-5.843-25.73-1.132-7.434-3.242-15.186-8.656-20.91-1.362-1.445-3.158-2.819-5.13-2.744-2.371.093-3.946 2.244-4.618 4.369-.758 2.426-.984 4.987-.664 7.509 2.765 21.878 13.185 34.582 20.793 40.744z" transform="translate(-357 -929) translate(357 929)"/>
                <path fill="#F7FFEE" d="M58.526 133.602c.111 0 .22-.028.319-.08.312-.174.43-.565.265-.883-6.608-12.215-11.65-25.213-15.008-38.686-.041-.246-.217-.447-.455-.522-.239-.074-.499-.009-.673.17-.175.178-.234.439-.154.675 3.383 13.576 8.464 26.672 15.122 38.981.117.213.341.346.584.345z" transform="translate(-357 -929) translate(357 929)"/>
                <path fill="#AFD95F" d="M154.945 133.31c7.351-.662 13.247-3.812 18.347-7.465 7.634-5.477 13.95-12.328 17.042-20.862.884-2.496 1.526-5.16 1.225-8.048-.274-2.57-1.676-5.711-4.653-7.24-2.477-1.272-5.126-.958-7.25-.313-8.425 2.553-13.22 9.16-16.697 16.043-3.476 6.882-6.055 14.378-11.548 19.939-1.827 1.85-3.981 3.494-5.113 5.8 1.742 1.66 4.29 2.53 6.524 2.69 2.233.159 4.241-.287 6.192-.73" transform="translate(-357 -929) translate(357 929)"/>
                <path fill="#E0FAA2" d="M153.22 132.074c-.23-.033-.44-.145-.593-.318-.26-.292-.243-.65.035-.8 12.505-6.692 25.853-23.782 28.994-34.012.088-.287.442-.393.831-.23.342.113.555.452.509.808-3.19 10.38-16.724 27.705-29.4 34.494-.117.058-.248.078-.376.058z" transform="translate(-357 -929) translate(357 929)"/>
                <path fill="#C2F271" d="M151.402 135.223c-1.92-.83.655-6.034 3.043-6.405 7.196-1.104 12.982-4.92 19.192-7.885 6.21-2.963 13.353-5.115 21.434-2.782 2.039.587 4.335 1.652 5.715 3.701 1.41 2.144 1.485 4.9.194 7.116-1.146 2.061-2.871 3.743-4.962 4.837-17.848 9.312-34.624 5.747-44.616 1.418z" transform="translate(-357 -929) translate(357 929)"/>
                <path fill="#F7FFEE" d="M156.325 132.149c-.333-.032-.59-.307-.597-.64-.002-.173.067-.338.19-.46.121-.121.287-.188.46-.186 13.203.02 26.325-2.058 38.874-6.157.344-.11.714.068.84.406.058.161.047.338-.028.492-.076.153-.21.269-.374.32-12.684 4.147-25.948 6.25-39.294 6.23l-.071-.005z" transform="translate(-357 -929) translate(357 929)"/>
                <path fill="#F9FBFF" d="M96.476 75.136c2.238 5.637 3.415 11.626 4.56 17.58 2.95 15.346 5.75 30.762 6.754 46.354l-11.163.544c-.454.083-.922-.026-1.292-.3-.21-.261-.334-.58-.354-.915-1.866-11.485-1.77-23.243-3.366-34.794-1.742-12.752-5.484-25.178-7.16-37.926-.757-5.764-.178-7.986 2.737-4.651 2.76 3.158 7.745 10.221 9.284 14.108z" transform="translate(-357 -929) translate(357 929)"/>
                <path fill="#38393A" d="M86.095 13.693c1.367 3.234-1.358 11.737-2.242 12.152.101-.049-.805-11.578-.252-12.465.552-.888 2.176-.455 2.494.313z" transform="translate(-357 -929) translate(357 929)"/>
                <path fill="#FFD2AC" d="M67.275 63.4c-4.075-.196-7.25-3.6-7.157-7.673l-1.512-24.162 13.079 1.816 3.423 21.882c.183 2.154-.572 4.282-2.072 5.84-1.5 1.558-3.599 2.395-5.761 2.297z" transform="translate(-357 -929) translate(357 929)"/>
                <path fill="#FC7660" d="M71.685 33.38l-11.536-.883s1.274 7.227 2.327 9.638c3.096 7.068 10.261 6.87 11.606 6.582l-2.397-15.336z" transform="translate(-357 -929) translate(357 929)"/>
                <path fill="#FFD2AC" d="M84.782 19.537c0 6.122-1.566 8.441-1.075 13.777.323 3.534 1.256 8.587-1.15 11.392-2.15 2.51-6.007 2.947-10.04 2.067-9.501-2.067-12.872-8.008-14.239-17.633-1.119-8.57-.827-13.225.306-15.244 1.132-2.018 3.706-8.392 12.99-8.176 9.284.217 13.203 2.8 13.208 13.817z" transform="translate(-357 -929) translate(357 929)"/>
                <path fill="#FC7660" d="M76.877 34.763h-.225c-.065-.002-.127-.03-.171-.079-.044-.048-.067-.112-.063-.177.003-.066.032-.127.081-.171.05-.044.114-.067.18-.063.597.03 1.194-.072 1.747-.3.233-.077.432-.233.561-.442.098-.364.044-.751-.15-1.074-1.001-2.5-1.52-5.165-1.53-7.858-.013-.095.03-.19.112-.241.081-.052.185-.052.266 0 .082.052.125.146.112.241.01 2.63.519 5.236 1.5 7.677.155.385.39.972.128 1.48-.186.304-.472.533-.81.65-.55.23-1.14.352-1.737.357zM72.98 42.555h-.216c-.065-.002-.127-.03-.171-.079-.044-.048-.067-.112-.063-.177.002-.065.03-.127.079-.171.048-.044.112-.067.177-.063.726.035 1.23-.115 1.495-.442.262-.436.324-.964.168-1.449-2.014-.16-3.802-1.347-4.728-3.14-.475.563-.712 1.288-.663 2.023.084 1.06.813 1.974 2.11 2.65.059.028.104.08.124.143.02.062.014.13-.019.188-.062.12-.21.168-.331.106-1.84-.95-2.31-2.177-2.375-3.043-.076-1.006.33-1.989 1.092-2.65.06-.046.138-.06.21-.04.074.02.133.071.162.141.829 1.833 2.61 3.053 4.622 3.163.109.004.202.08.23.185.234.884.159 1.586-.217 2.054-.441.446-1.061.667-1.685.601z" transform="translate(-357 -929) translate(357 929)"/>
                <path fill="#4E4241" d="M83.45 21.423c-.11 0-.206-.072-.239-.176-.093-.266-.268-.495-.5-.654-.504-.382-1.143-.542-1.769-.442-.091.025-.19-.005-.252-.077-.062-.071-.078-.172-.04-.26.038-.087.122-.145.217-.149.754-.11 1.52.085 2.128.544.309.217.542.526.667.883.02.063.012.13-.02.188-.03.057-.084.1-.148.117l-.044.026zM68.876 21.423c-.057 0-.112-.02-.155-.057-.05-.04-.083-.1-.09-.165-.006-.065.013-.13.055-.18 1.1-1.293 2.774-1.956 4.463-1.767.13.023.22.144.203.275-.016.131-.133.226-.265.216-1.525-.175-3.036.428-4.02 1.603-.05.051-.12.078-.19.075z" transform="translate(-357 -929) translate(357 929)"/>
                <path fill="#38393A" d="M61.06 21.401c.492-.464 3.203-1.409 3.539-1.988-.823-3.697-.142-6.426.12-6.493 4.82-1.192 4.144 1.03 13.269 1.03 4.98 0 5.06-.999 6.47-.38 1.646-.65 2.451-1.586 2.562-3.812.168-3.437-2.053-6.604-13.243-5.964-3.764.217-16.078 3.945-17.427 5.562.442 3.361.924 10.274 1.238 14.855.403 1.029 1.363 3.25 2.066 4.072l1.278-.163c.182-1.414-.15-5.725.129-6.719z" transform="translate(-357 -929) translate(357 929)"/>
                <path fill="#FFCDAE" d="M60.154 26.98c-.235-.715-1.15-3.322-3.693-2.893-1.606.265-1.818 1.352-1.973 2.111-.478 2.13-.037 4.361 1.216 6.149.557.807 1.394 1.378 2.349 1.603.978.205 1.975-.257 2.45-1.135.223-.668.248-1.386.071-2.067" transform="translate(-357 -929) translate(357 929)"/>
                <path fill="#FC7660" d="M59.128 29.838c-.125 0-.23-.093-.244-.216-.123-1.087-.623-2.854-1.357-3.38-.147-.118-.338-.165-.522-.128-.65.142-.819 1.175-.823 1.184-.008.065-.042.125-.095.164-.052.04-.119.055-.184.044-.134-.02-.226-.145-.208-.279 0-.057.213-1.378 1.203-1.594.321-.068.656.008.916.207 1.017.73 1.468 2.938 1.557 3.724.009.065-.01.131-.05.183-.041.052-.101.084-.167.091h-.026z" transform="translate(-357 -929) translate(357 929)"/>
                <path fill="#FC7660" d="M57.606 29.653c-.128 0-.234-.099-.243-.226-.061-.422-.043-.852.053-1.267.113-.484.486-.864.969-.986.133-.021.26.067.287.2.024.133-.065.262-.199.286-.297.093-.524.334-.597.636-.078.359-.09.729-.035 1.091.006.066-.015.13-.057.18-.043.05-.104.081-.169.086h-.009z" transform="translate(-357 -929) translate(357 929)"/>
                <path fill="#00C499" d="M59.11 56.434L54.112 60.56 64.484 94.347 82.919 101.984 89.337 91.073 81.623 57.799 75.396 55.343 71.703 60.56z" transform="translate(-357 -929) translate(357 929)"/>
                <path fill="#00A272" d="M82.92 102.227c-.125 0-.23-.093-.244-.217-1.084-9.717-8.691-36.194-11.124-41.009-.061-.12-.014-.268.106-.331.123-.058.27-.01.332.11 2.446 4.86 10.085 31.437 11.173 41.177.008.065-.01.13-.05.181-.042.051-.102.083-.167.089h-.027z" transform="translate(-357 -929) translate(357 929)"/>
                <path fill="#68F7BF" d="M58.747 54.3L71.703 60.56 68.46 70.207 57.071 58.347zM78.709 67.481L71.703 60.56 75.365 53.788 76.793 54.8z" transform="translate(-357 -929) translate(357 929)"/>
                <path fill="#F9FBFF" d="M84.131 58.695l-7.17-2.787c3.751 10.412 4.866 24.087 5.06 40.409-9.12-17.67-25.162-38.024-25.162-38.024l-5.33 1.767c-7.307 1.26-2.119 80.283-2.119 80.283 5.41 1.417 24.973 4.289 34.982 2.831 14.066-2.045 17.79-3.313 17.79-3.313 0-26.335-11.014-65.065-13.619-75.852-.565-2.365-2.204-4.331-4.432-5.314z" transform="translate(-357 -929) translate(357 929)"/>
                <path fill="#4E8CCD" d="M85.653 123.169c-.126-.002-.232-.096-.248-.221l-2.72-24.122c-4.167-3.94-12.141-11.114-19.183-15.399-.396-.199-.729-.505-.96-.883-.129-.31-.189-.645-.177-.98l-.234-7.987c.026-.252-.037-.505-.177-.716-.146-.12-.322-.2-.509-.23-2.339-.629-4.72-1.09-7.125-1.378-.12-.013-.213-.113-.217-.234-.164-3.79-.38-7.637-.65-11.427-.018-.093.02-.188.097-.245.077-.056.179-.063.263-.019.084.045.135.134.13.229.266 3.728.483 7.509.642 11.237 2.358.291 4.694.746 6.989 1.36.275.052.531.179.738.367.228.298.339.669.31 1.043l.234 7.986c-.096.634.277 1.247.885 1.453 7.117 4.333 15.167 11.59 19.329 15.527.044.04.07.095.075.154l2.733 24.21c.008.065-.01.13-.052.18-.04.051-.1.084-.164.09l-.01.005z" transform="translate(-357 -929) translate(357 929)"/>
                <path fill="#4E8CCD" d="M82.389 98.455h-.067c-.13-.037-.206-.17-.172-.3 2.211-8.332 3.432-15.867 3.697-22.396.034-.317.007-.638-.08-.945-.122-.272-.291-.52-.499-.734l-4.105-4.779c-.075-.089-.075-.22 0-.31.808-1.05 1.555-2.146 2.239-3.281.096-.13.157-.282.176-.442-.03-.16-.097-.313-.199-.441-1.605-2.398-3.072-4.886-4.392-7.452-.061-.121-.014-.269.106-.332.058-.03.126-.036.189-.016.062.02.114.064.143.122 1.312 2.551 2.77 5.024 4.366 7.408.358.395.373.992.035 1.405-.66 1.092-1.378 2.15-2.15 3.167l3.981 4.625c.246.257.443.556.584.883.11.366.148.75.11 1.13-.265 6.57-1.512 14.136-3.715 22.502-.027.113-.13.19-.247.186z" transform="translate(-357 -929) translate(357 929)"/>
                <path fill="#FD9803" d="M99.183 118.822c2.243 1.568 4.56 3.216 5.896 5.605.265.478.557 1.039 1.088 1.167.399.05.803-.033 1.15-.234.441-.132.808-.441 1.013-.853.068-.33.027-.674-.115-.98-.63-1.762-1.572-3.396-2.782-4.824-.395-.51-.886-.938-1.446-1.26-1.783-.931-3.486.186-4.804 1.38z" transform="translate(-357 -929) translate(357 929)"/>
                <path fill="#38393A" d="M127.177 17.103c-1.367 3.23 1.358 11.737 2.242 12.152-.102-.049.805-11.577.252-12.465-.553-.888-2.176-.446-2.494.313z" transform="translate(-357 -929) translate(357 929)"/>
                <path fill="#FFD2AC" d="M144.418 67.583c4.396-.42 7.665-4.007 7.355-8.07l.443-24.215-14.057 2.557-2.61 22.05c-.203 4.533 3.977 8.146 8.869 7.678z" transform="translate(-357 -929) translate(357 929)"/>
                <path fill="#FC7660" d="M138.16 37.855l12.424-1.563s-1.022 7.292-2.035 9.761c-2.981 7.25-10.748 7.443-12.216 7.231l1.826-15.429z" transform="translate(-357 -929) translate(357 929)"/>
                <path fill="#FFD2AC" d="M129.437 22.342c0 6.118-.168 7.253 0 13.596.093 3.534-.181 8.764 2.211 11.569 2.15 2.509 6.011 2.95 10.04 2.071 9.506-2.071 12.876-8.012 14.239-17.633 1.119-8.574.831-13.225-.301-15.248-1.132-2.023-3.707-8.393-12.99-8.176-9.285.216-13.195 2.8-13.2 13.821z" transform="translate(-357 -929) translate(357 929)"/>
                <path fill="#FC7660" d="M136.182 39.264c-.596 0-1.187-.118-1.738-.344-.336-.119-.621-.348-.81-.65-.278-.543.253-3.533 1.77-4.5.079-.047.177-.048.256-.003.08.045.13.13.13.22.002.092-.046.177-.125.224-1.327.835-1.73 3.534-1.593 3.86.132.2.33.346.558.416.56.231 1.164.334 1.769.3.065-.005.13.018.179.062.048.044.076.107.077.172.004.066-.019.13-.063.18-.044.048-.105.078-.171.081l-.239-.018z" transform="translate(-357 -929) translate(357 929)"/>
                <path fill="#4E4241" d="M130.768 26.194h-.07c-.129-.039-.203-.171-.169-.3.122-.367.358-.686.673-.91.609-.456 1.375-.65 2.127-.54.122.034.2.153.18.277-.02.125-.129.215-.255.21-.625-.099-1.264.06-1.77.441-.226.162-.4.388-.495.65-.03.098-.118.167-.22.172zM145.338 26.194c-.075 0-.145-.034-.19-.093-.987-1.173-2.496-1.775-4.02-1.603-.065.008-.13-.01-.182-.049-.052-.04-.085-.099-.093-.163-.016-.136.081-.258.217-.274 1.688-.194 3.362.469 4.458 1.767.06.073.071.174.03.26-.04.085-.125.14-.22.142v.013z" transform="translate(-357 -929) translate(357 929)"/>
                <path fill="#FFCDAE" d="M154.06 29.78c.239-.715 1.15-3.317 3.698-2.893 1.601.265 1.818 1.352 1.968 2.112.48 2.129.039 4.362-1.216 6.148-.555.807-1.39 1.38-2.344 1.604-.979.204-1.975-.257-2.45-1.135-.226-.668-.25-1.386-.072-2.068" transform="translate(-357 -929) translate(357 929)"/>
                <path fill="#FC7660" d="M155.09 32.639h-.03c-.134-.017-.23-.136-.217-.27.089-.79.544-2.995 1.561-3.728.261-.198.595-.273.916-.208.986.217 1.194 1.538 1.199 1.595.01.064-.006.13-.044.181-.038.053-.096.087-.16.097-.065.01-.131-.006-.185-.045-.053-.039-.088-.097-.098-.162 0 0-.164-1.038-.818-1.184-.185-.036-.375.011-.522.128-.734.526-1.239 2.292-1.358 3.38-.015.122-.12.214-.243.216z" transform="translate(-357 -929) translate(357 929)"/>
                <path fill="#FC7660" d="M156.608 32.457c-.066-.004-.126-.035-.169-.085-.042-.05-.063-.114-.057-.18.053-.363.041-.732-.035-1.09-.081-.303-.317-.54-.62-.623-.127-.031-.208-.156-.184-.285.023-.129.143-.217.273-.201.49.115.871.496.987.985.094.417.112.848.053 1.272-.02.12-.125.209-.248.207z" transform="translate(-357 -929) translate(357 929)"/>
                <path fill="#38393A" d="M138.283 6.36c10.447-.384 20.28 3.914 17.737 8.393 4.423 1.268 3.6 9.025.628 12.134-.91.989-1.587 2.167-1.982 3.45-.106.336-.371 1.767-.725 1.767-.168 0-.062-1.55-.075-1.997 0-1.258-.05-3.18-.173-3.396-.124-.217-2.614-3.644-2.968-5.138.089 1.94-.955 1.538-3.883-.335-2.3-1.476-3.517-3.172-3.981-3.468.48.524.872 1.12 1.163 1.767.11.292.173.667-.057.884-.151.106-.334.157-.518.145-3.513.166-6.997-.718-10.005-2.54-.852-.512-1.647-1.115-2.37-1.797-.363-.062-1.442 4.792-1.805 4.907-.712-3.72-.743-5.565-.469-6.948s1.11-7.522 9.483-7.827z" transform="translate(-357 -929) translate(357 929)"/>
                <path fill="#FDCC00" d="M122.63 104.586c-5.264 2.65-19.851 10.442-22.018 12.81-.15.167.323.309.535.388 2.362.906 4.737 3.127 6.09 5.26.142.217.744 2.117.974 2.232.223.086.466.11.703.07 4.688-.415 8.868-3.494 13.362-4.903.672-.212 1.252-.645 1.933-.848" transform="translate(-357 -929) translate(357 929)"/>
                <path fill="#FDCC00" d="M115.088 133.006c-.778-20.006 1.15-49.031 8.634-67.225 3.42-8.31 8.802-9.082 11.222-10.16.116-.043.236-.074.358-.093.066-.015.136-.004.194.033.057.037.097.095.111.162.721 3.123 2.49 6.383 6.506 6.184 4.017-.199 6.83-2.54 9.678-6.184.442-.561 3.98 1.43 7.48 3.397 3.14 1.766 3.37 8.074 4.64 12.624 3.516 12.562 1.388 44.507-4.353 65.087-1.69 6.074-44.173 3.883-44.47-3.825z" transform="translate(-357 -929) translate(357 929)"/>
                <path fill="#B66702" d="M134.753 124.123c-.444-.494-.625-1.17-.486-1.82.1-.339.373-.6.716-.685.629-.132 1 .442 1.526.65 1.07.406 2.017-.827 3.097-1.184.933-.305 1.937.062 2.883.344 3.158.886 6.499.886 9.656 0 1.184-.253 2.286-.797 3.207-1.581 1.327-1.277 1.72-3.23 1.906-5.067.442-4.2 1.075-9.236.495-13.406-.964-6.926-1.234-7.248-4.184-18.866-.181-.72-.19-2.124.394-.154.933 3.171 2.53 1.533 4.343 5.3 4.11 11.132 6.635 24.542 3.278 40.78l-15.286.442c-1.075.03-2.212.04-3.096-.57-.51-.345-.885-.884-1.425-1.153-.672-.353-1.477-.283-2.238-.336-1.913-.154-3.663-1.14-4.786-2.694z" transform="translate(-357 -929) translate(357 929)"/>
                <path fill="#FD9803" d="M125.615 134.013c-.168-7.328.069-14.66.708-21.962 1.682-17.346 6.129-34.31 13.172-50.255l.442.2c-7.02 15.895-11.45 32.81-13.123 50.103-.64 7.283-.876 14.596-.708 21.905l-.49.009z" transform="translate(-357 -929) translate(357 929)"/>
                <path fill="#FD9803" d="M135.545 65.78c-1.888-4.015-1.561-9.275-1.402-9.84.16-.566 1.185-.977 1.77-.853.114.022.818 2.279 1.269 3.282.601 1.271 1.499 2.38 2.618 3.233 0 0-.048.11-.097.194-1.508 1.195-2.9 2.53-4.158 3.985zM151.773 55.087s-2.698 3.723-5.267 5.163c-2.57 1.44-6.693 1.352-6.693 1.352l-.097.194 2.778 5.036c1.226-.432 2.41-.974 3.538-1.621 1.274-.822 5.503-3.896 6.98-7.951-.358-1.431-.695-1.639-1.239-2.173z" transform="translate(-357 -929) translate(357 929)"/>
                <path fill="#FDCC00" d="M174.27 80.136c3.299 8.733 4.705 18.058 5.634 27.347.297 2.92.513 6.016-.8 8.64-1.353 2.607-3.635 4.612-6.396 5.619-12.495 4.59-15.11 5.11-26.6 5.141-.72 0-1.338-.509-1.473-1.214-.443-2.386-.735-5.385-1.128-7.69-.135-.788.373-1.542 1.154-1.714 5.825-1.273 7.63-2.209 13.778-4.683 1.243-.499 2.557-1.09 3.26-2.23.61-.985.65-2.209.606-3.37-.213-5.447-3.132-12.369-5.67-17.201-2.929-5.566-4.578-12.545-4.273-15.849.318-3.472.699-7.16 2.273-10.327 2.101-4.219 3.981-4.77 7.343-1.59 5.59 5.243 9.61 11.997 12.291 19.121z" transform="translate(-357 -929) translate(357 929)"/>
                <path fill="#FD9803" d="M162.654 108.468l-.31-.38c1.396-1.122 3.03-1.91 4.778-2.305l.11.481c-1.675.375-3.24 1.13-4.578 2.204zM147.841 127.157c-.601 0-1.176 0-1.734-.026v-.495c6.33.23 16.03-.813 22.364-3.626l.203.441c-5.834 2.606-14.508 3.706-20.833 3.706zM145.687 126.15c.284-1.61.248-3.262-.106-4.859-.376-1.943-.765-3.609-1.27-4.037-.579-.199-2.361.464-2.397.517-.035.053.514 6.14 1.022 8.688 0-.022 2.685-.075 2.751-.309z" transform="translate(-357 -929) translate(357 929)"/>
                <path fill="#FFD2AC" d="M136.938 111.375c-.464-.778-.185-1.06-.915-1.604-.885-.653-5.697-1.638-6.44-1.228-1.407.769-1.615 3.004-1.645 3.706-.01.15-.038.299-.085.442-.544 1.767-.159 5.813 1.155 8.309.207.397.578.685 1.015.786.438.1.897.006 1.258-.26.12-.113.279-.174.443-.168.597.15.858.821 1.132 1.369.98 1.88 2.96 3.027 5.082 2.942.854-.044 1.68-.296 2.53-.407.239-.026.48.005.703.093.462.176.98.118 1.391-.154.412-.273.666-.727.684-1.22.07-2.133 0-4.554-1.12-6.1-1.64-2.261-3.724-4.041-5.188-6.506z" transform="translate(-357 -929) translate(357 929)"/>
                <path fill="#FC7660" d="M127.929 112.709c-.053-.001-.104-.018-.146-.049-.108-.082-.13-.236-.049-.344.764-1.024 1.944-1.655 3.22-1.723.065-.004.13.02.178.063.048.044.076.106.079.171.007.135-.095.251-.23.26-1.13.06-2.175.617-2.853 1.52-.047.064-.12.101-.2.102zM128.623 120.178c-.028.004-.056.004-.084 0-.061-.022-.111-.067-.139-.126-.027-.06-.03-.127-.007-.187.436-1.19 1.044-2.31 1.805-3.322.286-.474.746-.818 1.282-.959.132-.016.254.073.279.203.012.065-.004.131-.042.185-.038.053-.097.088-.161.098-.403.131-.745.403-.965.764-.73.978-1.315 2.055-1.738 3.198-.04.091-.13.149-.23.146zM127.703 116.547c-.038 0-.076-.01-.11-.026-.12-.061-.169-.206-.111-.327.287-.579 1.597-2.748 2.79-2.814.095-.017.19.022.246.1.056.078.061.181.014.264-.046.084-.137.133-.233.126-.765.045-1.937 1.652-2.375 2.54-.04.085-.127.138-.22.137z" transform="translate(-357 -929) translate(357 929)"/>
                <path fill="#FD9803" d="M180.125 111.627c.002 1.553-.336 3.087-.99 4.496-1.269 2.44-3.356 4.355-5.896 5.411-.193-.42-.317-.866-.367-1.325-.275-2.385.199-4.96 1.769-6.767 1.048-1.224 3.795-2.57 5.484-1.815zM114.925 118.822c-.135-.002-.243-.112-.243-.247 0-15.95 2.238-31.95 6.466-46.266.04-.13.179-.203.31-.163.062.018.115.06.145.118.031.057.038.124.018.187-4.22 14.271-6.448 30.222-6.448 46.124 0 .136-.111.247-.248.247zM164.923 110.133c-.61-.248-1.237-.454-1.875-.618l.12-.477c.66.169 1.31.383 1.941.64l-.186.455zM153.835 75.684h-.036c-.132-.023-.224-.145-.208-.278.84-5.743 2.805-10.063 5.834-12.81.097-.096.253-.096.35 0 .096.096.096.252 0 .349-2.942 2.65-4.866 6.873-5.68 12.51-.003.065-.032.126-.082.169-.049.043-.113.065-.178.06z" transform="translate(-357 -929) translate(357 929)"/>
                <path fill="#FC7660" d="M137.115 43.73h-.362c-.136-.012-.238-.13-.23-.265.004-.065.035-.126.085-.168.05-.043.115-.063.18-.057.19.01.38.01.57 0 .68-.017 1.342-.219 1.916-.583.551-.361.93-.933 1.044-1.582 0-.096.056-.183.144-.224.087-.04.19-.026.264.036.073.063.104.162.078.255-.128.789-.584 1.487-1.256 1.921-.642.412-1.383.642-2.145.667h-.288z" transform="translate(-357 -929) translate(357 929)"/>
                <path fill="#FFD2AC" d="M95.746 117.634c.845.34 1.659.954 1.889 1.833.142.64.024 1.31-.327 1.864-.715 1.084-1.93 1.734-3.23 1.727-1.288-.025-2.532-.476-3.538-1.28-4.02-3.075 2.619-5.165 5.206-4.144z" transform="translate(-357 -929) translate(357 929)"/>
                <path fill="#FFC8A8" d="M105.495 122.113c1.044 1.325.805 3.004.49 3.436-2.242 3.092-4.533 5.562-7.793 7.55-.649.473-1.412.768-2.211.852-.991 0-1.871-.614-2.619-1.268-.692-.608-1.34-1.263-1.941-1.961-.5-.501-.849-1.134-1.004-1.824-.046-.507.02-1.018.19-1.498.767-2.484 2.294-4.667 4.365-6.241 1.84-1.41 4.49-2.995 6.692-1.674 1.646.985 2.645 1.104 3.83 2.628z" transform="translate(-357 -929) translate(357 929)"/>
                <path fill="#FFD2AC" d="M94.212 134.574c.743.556 2.432 1.126 3.25.689 1.327-.707 3.45-2.62 4.18-3.145.796-.57.938-1.524 1.641-2.209.549-.53 1.327-.207 2.013-.49.685-.283 1.849-1.356 1.234-2.584s-1.858-2.235-2.915-3.004c-2.623-1.908-5.308-3.847-8.377-4.859-3.07-1.011-6.675-1.029-9.368.787-1.212.817-2.402 2.146-2.756 3.6-.442 1.727.885 2.451 2.079 3.582 2.851 2.721 5.863 5.27 9.019 7.633z" transform="translate(-357 -929) translate(357 929)"/>
                <path fill="#FFC8A8" d="M98.542 117.77c-.827-.293-1.726-.323-2.57-.083-.645.301-1.241.697-1.77 1.175-.924.695-1.976 1.202-3.095 1.493-.36.04-.692.217-.925.495-.27.441.11 1.038.566 1.325.703.381 1.523.487 2.3.296.77-.19 1.506-.496 2.18-.91.59-.332 2.836 1.069 5.043.146 1.77 1.576 3.198.76 3.357.265.668-2.09-3.543-3.764-5.086-4.201zM89.483 126.693c.25-.237.59-.359.934-.335.271.08.477.302.54.578.058.272.042.554-.045.818-.245.729-.625 1.406-1.12 1.996-.182.264-.406.497-.663.69-.459.301-1.043.341-1.539.105-2.172-1.06.947-3.167 1.893-3.852zM92.212 129.163c.219-.111.459-.174.704-.186.25-.01.485.121.606.34.059.176.078.363.057.548-.007.104.016.209.066.3.12.182.372.19.584.204 1.009.07 1.677.251 2.168 1.135.08.141.495.172.561.813 0 .11-1.136 3.003-2.083 2.941-.566-.079-1.105-.289-1.575-.614-1.327-.781-2.715-1.58-3.781-2.73-.664-.72-.071-1.042.58-1.528.654-.488 1.364-.898 2.113-1.223z" transform="translate(-357 -929) translate(357 929)"/>
                <path fill="#FC7660" d="M91.876 132.957c-.055 0-.108-.019-.15-.053-.106-.086-.124-.241-.04-.349.575-.722 1.062-1.509 1.45-2.345.027-.095.107-.165.205-.178.097-.014.193.031.245.115.051.083.049.19-.007.27-.407.872-.915 1.693-1.513 2.447-.046.059-.116.093-.19.093zM94.004 134.446c-.036 0-.071-.01-.102-.027-.123-.058-.176-.204-.12-.327.462-.97 1.009-1.898 1.633-2.774.049-.077.137-.121.228-.114.092.007.172.064.208.148.037.085.023.182-.034.253-.609.851-1.14 1.754-1.588 2.7-.042.085-.13.14-.225.14z" transform="translate(-357 -929) translate(357 929)"/>
                <path fill="#FD9803" d="M119.109 109.497c-.098.001-.186-.056-.226-.145-.56-1.213-1.289-2.341-2.162-3.353-.044-.048-.065-.112-.061-.177.004-.065.034-.125.083-.168.103-.087.258-.078.35.023.905 1.046 1.659 2.215 2.237 3.471.057.124.004.27-.12.327-.031.014-.066.021-.101.022zM119.653 104.904c-.376 0-.756-.045-1.132-.093-.134-.019-.228-.14-.213-.274.008-.065.042-.124.093-.163.052-.04.117-.058.182-.05.362.045.725.076 1.083.085.066.002.128.03.173.078.045.049.069.112.066.178-.001.065-.028.127-.076.172-.047.045-.11.069-.176.067z" transform="translate(-357 -929) translate(357 929)"/>
                <path fill="#EEF2F6" d="M61.627 109.59L51.069 91.758c-.932-1.697-2.086-3.263-3.432-4.656-.19 23.314 1.769 53.223 1.769 53.223 2.247.592 1.508.755 6.944 1.431-1.013-5.3-2.694-27.625-2.242-28.04 3.304 4.355 9.637 9.046 12.588 9.165 2.95.12 6.064.442 8.726-.848-2.999-1.413-6.046-2.858-8.465-5.12-2.212-2.066-3.787-4.717-5.33-7.323z" transform="translate(-357 -929) translate(357 929)"/>
                <path fill="#F9FBFF" d="M67.96 104.586c5.26 2.65 19.851 10.442 22.014 12.81.155.167-.318.309-.53.388-2.367.906-4.738 3.127-6.096 5.26-.137.217-2.211 3.283-2.118 4.471-1.398 1.188-16.175-6.886-18.723-9.276-10.916-10.212-21.098-30.695-21.098-42.555 0-12.302 4.95-14.705 10.12-15.668 2.167 18.65 13.415 38.08 16.432 44.57z" transform="translate(-357 -929) translate(357 929)"/>
                <path fill="#00C499" d="M86.533 121.309c1.026-1.418 2.243-2.805 3.884-3.401-.576-.457-1.2-.848-1.863-1.166-.287-.2-.674-.179-.937.053-1.8 1.159-3.34 2.674-4.53 4.452-1.264 1.895-1.38 3.158.885 4.117.89-1.334 1.619-2.756 2.561-4.055z" transform="translate(-357 -929) translate(357 929)"/>
                <path fill="#4E8CCD" d="M80.584 120.324c-.04 0-.08-.01-.115-.031-.12-.066-.163-.216-.097-.336 1.215-2.197 3.05-3.99 5.276-5.155.058-.032.126-.038.19-.018.062.02.114.065.142.124.062.121.014.269-.106.332-2.139 1.122-3.902 2.845-5.073 4.956-.042.08-.126.13-.217.128zM63.334 106.49c-.12-.003-.222-.09-.243-.208-.012-.065.003-.131.042-.185.038-.053.096-.088.161-.098 1.105-.19 2.194-.467 3.256-.826.086-.043.19-.032.265.028.075.06.109.158.086.252-.023.093-.098.165-.192.184-1.086.37-2.2.653-3.33.848l-.045.004zM66.408 109.166c-.052-.001-.103-.018-.146-.048-.11-.081-.133-.235-.053-.345.503-.687.947-1.416 1.327-2.178.065-.113.208-.156.325-.097.118.058.169.198.117.318-.394.787-.854 1.54-1.375 2.249-.046.062-.118.1-.195.101z" transform="translate(-357 -929) translate(357 929)"/>
                <path fill="#4E8CCD" d="M87.953 116.035c-.052 0-.103-.015-.146-.044-2.424-1.767-4.932-3.587-7.705-4.86-.955-.44-1.973-.812-2.96-1.179-2.321-.883-4.723-1.766-6.58-3.45-1.664-1.51-2.725-3.493-3.756-5.406C63.462 94.868 60 88.427 57.28 81.758c-.063-.083-.068-.195-.012-.283.055-.087.16-.13.26-.109.102.022.18.104.194.206 2.712 6.626 6.166 13.075 9.51 19.29 1.008 1.882 2.052 3.82 3.649 5.274 1.791 1.634 4.144 2.509 6.422 3.357.99.367 2.017.75 2.99 1.188 2.822 1.277 5.348 3.114 7.794 4.89.082.064.114.173.082.272-.033.099-.124.167-.228.17l.013.022zM54.554 109.259c-.08 0-.154-.04-.199-.106-4.374-6.087-7.369-13.062-10.27-19.807-.06-.081-.065-.192-.011-.278.054-.086.155-.13.255-.112.1.019.179.096.198.196 2.888 6.718 5.874 13.671 10.213 19.714.04.053.055.12.044.184-.01.065-.047.123-.102.16-.037.029-.081.046-.128.049zM51.83 71.5c-.101.001-.192-.06-.23-.154-1.054-2.572-2.664-4.88-4.715-6.758-.097-.097-.097-.252 0-.349.045-.047.107-.074.172-.074.065 0 .128.027.173.074 2.101 1.927 3.75 4.296 4.825 6.935.025.06.024.13-.001.19-.026.06-.075.108-.136.132-.03.006-.059.008-.088.005zM98.542 118.014c-.125 0-.23-.093-.244-.217-1.486-13.724-3.096-22.408-5.351-34.427l-.752-4.055c-.013-.064 0-.13.037-.184.036-.054.093-.092.157-.103.133-.025.261.062.288.194l.756 4.055c2.243 12.032 3.866 20.725 5.356 34.454.013.135-.085.256-.22.27l-.027.013z" transform="translate(-357 -929) translate(357 929)"/>
            </g>
        </g>
    </g>
</svg>
